<svg width="512" height="512" viewBox="0 0 512 512" fill="none" xmlns="http://www.w3.org/2000/svg">
<g clip-path="url(#clip0_2235_47)">
<path d="M244.312 183.313C248.905 186.196 248.905 186.196 250 188C250.188 191.375 250.188 191.375 249 195C242.368 199.787 234.927 202.954 227.5 206.313C226.284 206.867 225.067 207.423 223.852 207.979C220.903 209.324 217.953 210.664 215 212C215 212.66 215 213.32 215 214C215 216.333 215 218.667 215 221C215.794 220.962 216.587 220.925 217.405 220.886C224.949 220.529 232.494 220.176 240.039 219.827C243.916 219.647 247.793 219.466 251.67 219.282C255.424 219.104 259.178 218.929 262.933 218.757C264.352 218.691 265.772 218.624 267.191 218.556C276.803 218.094 286.379 217.918 296 218C295.843 213.243 295.843 213.243 295.64 208.487C295.584 205.148 295.792 203.295 297.734 200.547C301.401 198.044 304.725 198.222 309 199C311.774 200.873 312.7 202.101 313.75 205.25C314.078 208.854 314.061 212.381 314 216C314.66 215.67 315.32 215.34 316 215C318.844 214.702 321.673 214.455 324.523 214.246C325.808 214.148 325.808 214.148 327.119 214.049C328.94 213.911 330.761 213.776 332.582 213.643C335.33 213.441 338.077 213.23 340.824 213.018C349.894 212.333 358.896 211.758 368 212C368.112 211.35 368.224 210.7 368.339 210.03C368.99 206.418 369.646 203.559 371.625 200.438C375.084 198.344 378.102 198.519 382 199C386.149 200.058 390.21 201.35 394.281 202.675C403.624 205.701 412.84 208.514 422.625 209.688C438.057 211.558 452.826 216.721 467 223C467.633 223.28 468.267 223.561 468.919 223.85C483.34 230.346 503.713 240.654 511.113 255.332C515.018 267.082 510.681 278.611 505.426 289.16C503.739 292.207 501.929 295.101 500 298C499.331 299.042 498.662 300.083 497.973 301.156C497.26 302.157 496.547 303.157 495.812 304.188C495.18 305.089 494.547 305.99 493.895 306.918C489.301 310.222 484.528 309.851 479 310C476.901 310.105 474.802 310.21 472.703 310.316C470.552 310.402 468.401 310.484 466.25 310.563C465.124 310.605 463.998 310.647 462.838 310.691C454.221 310.998 445.622 311.117 437 311C437.309 309.783 437.619 308.566 437.938 307.313C440.962 293.473 440.718 281.182 433 269C426.486 259.977 418.573 254.807 407.938 251.625C396.222 249.765 385.34 251.392 375.125 257.75C365.378 264.89 359.214 274.688 357.281 286.637C356.102 296.549 358.878 304.667 362 314C337.561 315.068 313.123 315.29 288.664 315.505C282.996 315.556 277.328 315.611 271.66 315.665C260.976 315.767 250.292 315.866 239.608 315.963C227.424 316.074 215.24 316.189 203.055 316.304C178.037 316.54 153.018 316.772 128 317C129.866 311.304 129.866 311.304 131.07 308.57C135.482 298.342 135.629 287.514 131.938 277.063C127.68 267.427 122.118 261.206 113 256C112.01 255.423 111.02 254.845 110 254.25C98.8494 249.604 87.3023 249.903 76 254C72.771 255.741 69.8823 257.737 67 260C66.166 260.616 65.332 261.232 64.4727 261.867C57.0034 268.31 52.5081 277.992 51.6875 287.695C51.3113 296.504 52.5596 303.801 56 312C56.6667 313.667 57.3333 315.333 58 317C41.0583 316.311 21.1254 314.076 9 301C1.74957 292.108 -0.238476 283.633 -0.375 272.375C-0.389019 271.575 -0.403037 270.776 -0.41748 269.952C-0.355306 262.228 1.4664 256.041 6.75 250.25C7.70133 249.175 7.70133 249.175 8.67188 248.078C32.2088 227.069 78.0538 226.488 107.938 222.813C108.64 222.724 109.343 222.636 110.067 222.544C116.675 221.717 123.223 220.916 129.895 220.906C147.316 220.744 161.131 213.043 176.462 205.572C185.865 201.03 195.509 197.099 205.188 193.188C206.836 192.518 208.484 191.849 210.133 191.179C213.13 189.964 216.129 188.756 219.131 187.554C221.487 186.611 223.834 185.654 226.177 184.682C227.058 184.318 227.94 183.953 228.848 183.578C229.566 183.277 230.284 182.976 231.024 182.665C235.727 181.082 239.69 181.481 244.312 183.313Z" fill="black"/>
<path d="M118.086 263.258C126.148 270.596 130.071 279.092 131.344 289.926C131.759 302.172 126.884 311.924 119 321C116.449 322.949 116.449 322.949 113.687 324.688C112.784 325.269 111.88 325.85 110.949 326.449C102.09 331.108 91.5186 331.342 81.832 329.348C72.2977 326.214 63.8535 319.881 58.9999 311C54.0946 299.355 53.316 288.643 57.7382 276.758C62.1407 267.135 70.1165 259.756 79.9999 256C93.6604 251.658 107.019 254.395 118.086 263.258ZM79.9999 273C80.9265 274.175 81.8666 275.34 82.8124 276.5C83.3345 277.15 83.8566 277.799 84.3945 278.469C85.992 280.345 85.992 280.345 88.9999 280C88.9999 276.7 88.9999 273.4 88.9999 270C85.3058 270 83.2216 271.282 79.9999 273ZM96.9999 270C96.9999 273.3 96.9999 276.6 96.9999 280C101.231 278.959 101.231 278.959 103.75 275.938C104.492 274.968 105.235 273.999 106 273C101.736 270.641 101.736 270.641 96.9999 270ZM73.9999 279C73.331 280.478 72.6649 281.958 71.9999 283.438C71.4431 284.673 71.4431 284.673 70.8749 285.934C69.935 287.779 69.935 287.779 69.9999 289C73.2999 289 76.5999 289 79.9999 289C80.3299 287.68 80.6599 286.36 80.9999 285C78.6899 283.02 76.3799 281.04 73.9999 279ZM111 279C109.965 279.9 108.947 280.821 107.937 281.75C107.369 282.26 106.8 282.771 106.215 283.297C105.814 283.859 105.413 284.421 105 285C105.33 286.32 105.66 287.64 106 289C109.3 289 112.6 289 116 289C115.319 287.082 115.319 287.082 114.625 285.125C114.37 284.406 114.114 283.686 113.852 282.945C113.061 280.818 113.061 280.818 111 279ZM69.9999 296C70.9899 298.64 71.9799 301.28 72.9999 304C76.2456 304.341 76.2456 304.341 78.6874 301.5C79.4506 300.675 80.2137 299.85 80.9999 299C80.6699 298.01 80.3399 297.02 79.9999 296C76.6999 296 73.3999 296 69.9999 296ZM106 296C105.558 299.831 105.558 299.831 107.312 301.484C107.869 301.902 108.426 302.32 109 302.75C109.99 303.493 110.98 304.235 112 305C114.294 301.559 115 300.277 115 296C112.03 296 109.06 296 106 296ZM85.9999 304C84.0199 306.31 82.0399 308.62 79.9999 311C82.9382 313.503 85.179 314.469 88.9999 315C88.9999 311.7 88.9999 308.4 88.9999 305C88.0099 304.67 87.0199 304.34 85.9999 304ZM97.9999 304C96.7405 305.034 96.7405 305.034 96.9023 307.285C96.9139 308.202 96.9255 309.118 96.9374 310.062C96.9465 310.982 96.9555 311.901 96.9648 312.848C96.9764 313.558 96.988 314.268 96.9999 315C100.868 313.882 103.289 312.971 106 310C105.048 308.994 104.088 307.995 103.125 307C102.324 306.165 102.324 306.165 101.508 305.312C100.082 303.781 100.082 303.781 97.9999 304Z" fill="black"/>
<path d="M422.059 261.277C429.539 267.025 434.629 276.243 436.484 285.387C437.741 296.269 435.57 306.615 429.16 315.57C423.206 322.784 415.399 328.346 406 330C393.818 330.884 383.495 329.558 373.777 321.629C364.278 312.923 360.7 303.904 360 291C360.518 280.814 364.782 271.218 372 264C387.256 252.082 405.47 250.984 422.059 261.277ZM386 273C387.275 275.844 388.451 278.138 391 280C392.32 279.67 393.64 279.34 395 279C395 276.03 395 273.06 395 270C391.306 270 389.222 271.282 386 273ZM402 270C402 272.97 402 275.94 402 279C403.32 279.33 404.64 279.66 406 280C408.771 277.646 408.771 277.646 411 275C410.67 274.01 410.34 273.02 410 272C407.104 270.552 405.258 270 402 270ZM379 280C376.641 284.264 376.641 284.264 376 289C379.3 289 382.6 289 386 289C385.524 284.712 384.341 282.734 381 280C380.34 280 379.68 280 379 280ZM413.375 282.25C410.564 284.899 410.564 284.899 411 289C414.3 289 417.6 289 421 289C420.502 285.265 420.125 283.188 418 280C415.677 279.783 415.677 279.783 413.375 282.25ZM376 296C376.99 298.97 377.98 301.94 379 305C383.008 302.996 384.414 301.509 387 298C386.67 297.34 386.34 296.68 386 296C382.7 296 379.4 296 376 296ZM411 296C410.67 296.99 410.34 297.98 410 299C410.952 300.006 411.912 301.005 412.875 302C413.409 302.557 413.942 303.114 414.492 303.688C415.918 305.219 415.918 305.219 418 305C418.99 302.03 419.98 299.06 421 296C417.7 296 414.4 296 411 296ZM392 304C390.994 304.952 389.995 305.912 389 306.875C388.443 307.409 387.886 307.942 387.312 308.492C385.781 309.918 385.781 309.918 386 312C388.97 312.99 391.94 313.98 395 315C395 311.7 395 308.4 395 305C394.01 304.67 393.02 304.34 392 304ZM404 304C403.01 304.495 403.01 304.495 402 305C402 308.3 402 311.6 402 315C404.97 314.01 407.94 313.02 411 312C408.996 307.992 407.509 306.586 404 304Z" fill="black"/>
</g>
<defs>
<clipPath id="clip0_2235_47">
<rect width="512" height="512" fill="white"/>
</clipPath>
</defs>
</svg>
