<svg width="512" height="512" viewBox="0 0 512 512" fill="none" xmlns="http://www.w3.org/2000/svg">
<g clip-path="url(#clip0_2235_51)">
<path d="M328.859 178.847C330.782 178.941 332.705 179.026 334.629 179.099C344.805 179.513 353.79 181.682 363.418 184.988C364.595 185.387 365.771 185.785 366.983 186.196C379.658 190.515 392.241 195.081 404.812 199.687C407.2 200.559 409.587 201.431 411.975 202.302C431.666 209.491 451.34 216.726 471 224C471.124 223.216 471.247 222.432 471.375 221.625C472 219 472 219 474 217C476.785 216.812 479.469 216.744 482.254 216.77C483.07 216.77 483.886 216.77 484.727 216.771C486.452 216.774 488.178 216.782 489.904 216.794C492.555 216.812 495.206 216.815 497.857 216.814C499.531 216.819 501.205 216.825 502.879 216.832C504.076 216.834 504.076 216.834 505.297 216.835C510.884 216.884 510.884 216.884 512 218C512.504 222.957 512.642 225.018 509.875 229.25C507.078 231.925 504.238 233.901 501 236C501.494 236.99 501.987 237.98 502.496 239C503.144 240.333 503.791 241.666 504.437 243C504.763 243.648 505.088 244.297 505.424 244.965C509.918 254.324 508.848 262.599 507.476 272.628C507.186 274.757 506.915 276.888 506.646 279.02C505.077 290.961 505.077 290.961 503 294C496.345 298.567 487.181 300.268 479.497 302.574C477.238 303.254 474.984 303.947 472.73 304.641C471.284 305.079 469.837 305.516 468.391 305.953C467.723 306.159 467.055 306.366 466.367 306.578C462.815 307.632 459.707 308.233 456 308C456.095 307.201 456.191 306.402 456.289 305.578C457.783 290.779 454.99 278.68 446.254 266.582C439.002 258.519 426.831 252.63 416 252C402.808 251.766 392.242 255.22 382.187 263.84C373.489 272.43 369.261 284.103 368.75 296.187C368.782 300.917 369.96 305.119 371.344 309.617C372 312 372 312 372 315C299.4 315 226.8 315 152 315C152.99 311.04 153.98 307.08 155 303C156.409 289.903 153.875 278.785 145.906 268.25C138.503 259.512 129.105 254.081 117.723 252.223C104.841 251.169 93.981 254.006 83.6249 261.75C74.4835 269.573 68.8387 280.65 67.7617 292.656C67.5499 300.769 69.365 307.381 71.9999 315C72.3517 316.329 72.694 317.66 72.9999 319C65.7583 319.261 58.8574 318.26 51.707 317.172C50.4428 316.982 49.1786 316.791 47.8761 316.595C45.2137 316.192 42.552 315.785 39.8908 315.375C36.4903 314.851 33.0871 314.348 29.6829 313.849C26.4179 313.366 23.1565 312.861 19.8945 312.359C18.6767 312.183 17.4589 312.007 16.2042 311.825C15.0692 311.645 13.9342 311.466 12.7648 311.28C11.7697 311.129 10.7745 310.978 9.74926 310.823C6.43194 309.83 4.5083 308.362 1.99993 306C-0.550157 299.436 -0.252625 291.554 -0.43757 284.562C-0.472133 283.793 -0.506696 283.024 -0.542307 282.232C-0.570219 278.43 -0.35196 276.513 1.83977 273.316C6.28239 270.06 11.056 267.777 15.9999 265.375C24.9345 260.884 32.1466 256.069 39.4667 249.342C42.2704 246.888 45.2827 244.727 48.3124 242.562C48.8636 242.161 49.4147 241.76 49.9826 241.347C57.3873 236.099 64.8254 233.195 73.6249 231.062C75.1675 230.684 75.1675 230.684 76.7411 230.298C93.4979 226.324 110.616 223.491 127.75 221.75C128.545 221.669 129.341 221.588 130.16 221.504C133.911 221.16 137.574 220.975 141.34 221.086C152.019 221.285 159.541 218.35 168.989 213.494C179.721 207.993 190.744 203.32 201.875 198.687C203.686 197.928 205.497 197.168 207.308 196.408C215.936 192.807 224.598 189.328 233.363 186.074C234.508 185.647 234.508 185.647 235.677 185.211C245.611 181.581 256.046 179.095 266.641 178.684C267.701 178.642 268.762 178.599 269.855 178.556C270.975 178.517 272.096 178.478 273.25 178.437C274.417 178.396 275.585 178.354 276.787 178.311C294.177 177.724 311.478 177.992 328.859 178.847ZM245.187 198.625C244.199 199.134 244.199 199.134 243.191 199.652C235.939 203.444 228.95 207.686 222 212C223.913 214.188 223.913 214.188 226.812 215.062C230.213 217.129 230.906 218.209 232.699 221.621C233.134 222.439 233.57 223.257 234.018 224.099C234.342 224.727 234.666 225.354 235 226C235.754 225.999 236.509 225.997 237.286 225.996C240.268 225.992 243.249 225.989 246.23 225.986C247.614 225.985 248.998 225.983 250.382 225.981C259.237 225.967 268.087 226.019 276.941 226.173C282.818 226.269 288.693 226.285 294.571 226.254C298.324 226.237 302.069 226.26 305.82 226.363C322.027 227.433 322.027 227.433 336.492 222.026C341.564 215.982 345.22 208.497 344.829 200.505C343.809 197.423 342.529 196.008 340 194C336.771 192.924 334.259 192.795 330.859 192.684C329.58 192.641 328.3 192.599 326.981 192.556C325.571 192.515 324.16 192.476 322.75 192.437C321.677 192.407 321.677 192.407 320.583 192.376C308.97 192.056 297.354 191.843 285.737 191.769C284.055 191.756 282.374 191.739 280.692 191.716C267.955 191.555 256.651 192.526 245.187 198.625Z" fill="black"/>
<path d="M434.375 264.25C443.265 271.092 448.29 278.89 450.637 290.02C451.977 301.014 449.253 310.442 443.012 319.523C436.245 327.854 427.157 332.549 416.563 333.875C405.084 334.505 395.114 331.43 386.449 323.734C378.245 315.195 374.644 305.745 374.785 294.008C375.569 283.032 380.071 274.136 387.984 266.602C401.308 256.015 420.145 254.728 434.375 264.25ZM416 273C416 276.3 416 279.6 416 283C417.32 283.33 418.64 283.66 420 284C421.65 281.69 423.3 279.38 425 277C421.877 275.005 419.658 273.915 416 273ZM400 277C402.97 280.465 402.97 280.465 406 284C406.99 283.67 407.98 283.34 409 283C409 280.03 409 277.06 409 274C404.723 274 403.441 274.706 400 277ZM394 283C391.706 286.441 391 287.723 391 292C393.97 292 396.94 292 400 292C400.442 288.169 400.442 288.169 398.688 286.516C398.131 286.098 397.574 285.68 397 285.25C396.01 284.508 395.02 283.765 394 283ZM430 283C426.066 286.878 426.066 286.878 425 292C428.3 292 431.6 292 435 292C434.443 288.656 433.648 285.967 432 283C431.34 283 430.68 283 430 283ZM425 300C425.176 302.379 425.697 303.702 427.402 305.379C428.907 306.621 430.451 307.814 432 309C434.291 304.188 434.291 304.188 435 299C429.917 298.887 429.917 298.887 425 300ZM391 300C391.497 304.468 391.69 305.69 395 309C396.98 307.02 398.96 305.04 401 303C400.67 302.01 400.34 301.02 400 300C397.03 300 394.06 300 391 300ZM404.395 309.531C403.873 310.181 403.35 310.831 402.813 311.5C402.283 312.15 401.753 312.799 401.207 313.469C400.809 313.974 400.41 314.479 400 315C404.264 317.359 404.264 317.359 409 318C409 314.7 409 311.4 409 308C405.992 307.655 405.992 307.655 404.395 309.531ZM417 308C417 311.3 417 314.6 417 318C419.97 317.01 422.94 316.02 426 315C424.608 313.268 424.608 313.268 423.188 311.5C422.665 310.85 422.143 310.201 421.606 309.531C420.008 307.655 420.008 307.655 417 308Z" fill="black"/>
<path d="M137.125 267.125C143.889 273.076 148.579 282.052 149.336 290.953C149.366 292.385 149.378 293.818 149.375 295.25C149.373 296 149.372 296.75 149.37 297.523C149.151 307.48 145.337 315.329 138.562 322.625C137.294 323.801 137.294 323.801 136 325C135.278 325.681 134.556 326.361 133.812 327.063C124.275 333.633 114.11 334.967 102.875 332.938C92.3977 330.387 85.3059 324.674 79 316C73.6429 306.339 72.0117 295.396 74.9062 284.629C79.5718 272.89 86.1804 265.483 97.6875 260.188C112.143 255.005 124.903 258.814 137.125 267.125ZM98 277C101.026 281.226 101.026 281.226 105.25 283.938C105.827 283.958 106.405 283.979 107 284C108.233 282.992 108.233 282.992 108.098 280.934C108.086 280.11 108.074 279.286 108.062 278.438C108.053 277.611 108.044 276.785 108.035 275.934C108.024 275.296 108.012 274.657 108 274C103.669 274 101.73 274.966 98 277ZM115 274C115 276.97 115 279.94 115 283C115.99 283.33 116.98 283.66 118 284C119.98 281.69 121.96 279.38 124 277C120.559 274.706 119.277 274 115 274ZM129 283C127.422 284.557 127.422 284.557 125.875 286.5C125.336 287.15 124.797 287.799 124.242 288.469C123.832 288.974 123.422 289.479 123 290C123.33 290.66 123.66 291.32 124 292C127.3 292 130.6 292 134 292C133.01 289.03 132.02 286.06 131 283C130.34 283 129.68 283 129 283ZM92 284C89.9851 287.875 89.9851 287.875 89 292C92.3 292 95.6 292 99 292C99.33 291.01 99.66 290.02 100 289C99.0512 288.175 98.1025 287.35 97.125 286.5C96.5913 286.036 96.0576 285.572 95.5078 285.094C94.0406 283.804 94.0406 283.804 92 284ZM124 300C124.542 303.796 126.201 305.472 129 308C129.99 307.67 130.98 307.34 132 307C133.448 304.104 134 302.258 134 299C132.721 298.979 131.442 298.959 130.125 298.938C129.406 298.926 128.686 298.914 127.945 298.902C125.918 298.874 125.918 298.874 124 300ZM89 300C89.99 302.64 90.98 305.28 92 308C95.2456 308.341 95.2456 308.341 97.6875 305.5C98.4506 304.675 99.2137 303.85 100 303C99.67 302.01 99.34 301.02 99 300C95.7 300 92.4 300 89 300ZM105 308C103.02 310.31 101.04 312.62 99 315C103.264 317.359 103.264 317.359 108 318C108 315.03 108 312.06 108 309C107.01 308.67 106.02 308.34 105 308ZM116 308C114.762 311.576 115.251 314.337 116 318C118.31 317.34 120.62 316.68 123 316C123.418 312.038 123.418 312.038 121.187 309.75C119.076 307.688 119.076 307.688 116 308Z" fill="black"/>
</g>
<defs>
<clipPath id="clip0_2235_51">
<rect width="512" height="512" fill="white"/>
</clipPath>
</defs>
</svg>
