<svg width="512" height="512" viewBox="0 0 512 512" fill="none" xmlns="http://www.w3.org/2000/svg">
<g clip-path="url(#clip0_2235_55)">
<path d="M337 156C338.087 156.018 339.174 156.036 340.294 156.054C375.42 156.726 410.412 160.292 445.063 166.063C446.454 166.288 446.454 166.288 447.874 166.517C453.805 167.557 458.854 168.793 463.188 173.25C465 176 465 176 466.285 179.301C467.905 183.156 470.349 185.973 473.25 188.938C474.244 189.986 475.238 191.036 476.23 192.086C476.709 192.587 477.188 193.088 477.681 193.605C479.929 195.983 482.051 198.467 484.184 200.949C485.579 202.525 487.017 204.062 488.473 205.582C489.348 206.504 490.223 207.425 491.125 208.375C491.932 209.208 492.739 210.04 493.57 210.898C501.679 221.249 501.59 230.205 501.098 243.033C500.97 250.386 500.97 250.386 504.018 256.867C506.249 259.076 508.555 261.036 511 263C514.493 269.986 512.648 283.348 510.375 290.563C504.377 305.632 495.417 313.283 481.683 321.021C480.22 321.872 478.811 322.812 477.414 323.766C474.451 325.281 472.283 325.229 469 325C469.058 323.707 469.116 322.414 469.176 321.082C469.68 305.116 466.88 293.298 456 281C445.506 271.055 432.451 267.361 418.305 267.684C409.256 268.16 401.219 271.644 394 277C393.395 277.441 392.791 277.882 392.168 278.336C382.277 286.137 376.569 298.645 375 311C374.95 313.432 374.936 315.865 374.953 318.297C374.963 320.182 374.963 320.182 374.974 322.105C374.982 323.06 374.991 324.016 375 325C357.438 325.032 339.875 325.051 322.313 325.063C321.647 325.063 320.982 325.063 320.296 325.064C274.841 325.093 229.391 324.891 183.938 324.5C183.242 324.494 182.547 324.488 181.83 324.482C164.22 324.33 146.61 324.17 129 324C129.018 323.001 129.036 322.003 129.055 320.974C129.07 319.633 129.084 318.293 129.098 316.953C129.116 315.645 129.134 314.337 129.153 312.989C128.641 299.603 122.783 288.31 113.25 279.125C104.302 271.512 93.393 267.595 81.6875 267.688C80.9392 267.693 80.1908 267.699 79.4197 267.705C69.0493 267.931 61.5717 271.27 53 277C52.1132 277.578 51.2263 278.155 50.3125 278.75C40.2589 288.532 35.1804 301.464 34.4375 315.25C34.3944 315.995 34.3512 316.74 34.3067 317.508C34.2011 319.338 34.1001 321.169 34 323C16.2457 319.337 16.2457 319.337 10 313C9.4509 312.464 8.90176 311.928 8.33598 311.375C1.15447 303.734 -0.598292 296.255 -0.470419 286.008C0.0628522 272.175 4.62834 256.423 14.25 246.063C39.5532 223.769 79.3069 216.217 111.606 211.575C122.258 210.018 130.392 207.501 139.721 202.236C200.288 169.377 268.486 154.843 337 156ZM178 199C174.084 206.45 174.544 213.888 176.5 221.875C176.918 223.604 176.918 223.604 177.344 225.367C177.56 226.236 177.777 227.105 178 228C212.331 225.419 246.659 222.811 280.983 220.149C284.405 219.883 287.826 219.619 291.248 219.355C295.306 219.042 299.364 218.727 303.421 218.411C304.915 218.295 306.41 218.18 307.904 218.065C309.96 217.907 312.015 217.746 314.071 217.585C315.222 217.496 316.373 217.406 317.559 217.314C321.382 216.965 325.191 216.476 329 216C329 201.48 329 186.96 329 172C284.154 171.469 216.209 171.338 178 199ZM347 174C347 187.2 347 200.4 347 214C358.924 214 370.66 213.511 382.545 212.666C385.928 212.426 389.31 212.208 392.697 212.042C409.415 212.071 409.415 212.071 423.528 204.727C426.538 200.816 428.482 196.931 429 192C428.191 189.232 428.191 189.232 426 187C420.829 184.813 415.737 183.341 410.223 182.281C409.142 182.066 409.142 182.066 408.039 181.847C405.715 181.389 403.389 180.943 401.063 180.5C399.869 180.27 399.869 180.27 398.652 180.035C381.503 176.741 364.504 174 347 174Z" fill="black"/>
<path d="M449 283C454.287 287.923 458.365 293.256 461 300C461.357 300.909 461.714 301.818 462.082 302.754C463.132 306.466 463.345 309.924 463.312 313.75C463.307 314.455 463.301 315.16 463.295 315.887C463.06 326.076 460.001 332.924 454 341C453.423 341.887 452.845 342.774 452.25 343.687C444.629 351.521 434 355.433 423.277 356.055C411.403 355.857 401.691 352.12 392.941 344.117C384.818 335.487 381.535 325.753 381 314C381.471 301.782 386.646 291.189 395.574 282.906C411.526 270.371 432.972 270.953 449 283ZM426 290C426 293.63 426 297.26 426 301C427.32 301.33 428.64 301.66 430 302C431.784 300.82 431.784 300.82 433.25 299.062C433.771 298.497 434.292 297.931 434.828 297.348C435.215 296.903 435.602 296.458 436 296C435.67 295.01 435.34 294.02 435 293C432.903 291.977 432.903 291.977 430.438 291.312C428.973 290.879 427.509 290.446 426 290ZM408 294C408.902 295.178 409.822 296.342 410.75 297.5C411.26 298.15 411.771 298.799 412.297 299.469C414.114 301.446 414.114 301.446 418 301C418 297.7 418 294.4 418 291C413.669 291 411.73 291.966 408 294ZM402 301C399.166 304.203 398.479 306.781 398 311C401.63 311 405.26 311 409 311C408.195 305.994 408.195 305.994 404.938 303.187C403.968 302.466 402.999 301.744 402 301ZM442 301C439.69 303.31 437.38 305.62 435 308C435.33 308.99 435.66 309.98 436 311C439.63 311 443.26 311 447 311C446.319 308.803 446.319 308.803 445.625 306.562C445.37 305.739 445.115 304.915 444.852 304.066C444.191 301.822 444.191 301.822 442 301ZM398 319C398.99 321.97 399.98 324.94 401 328C404.008 328.345 404.008 328.345 405.605 326.469C406.128 325.819 406.65 325.169 407.188 324.5C407.717 323.85 408.247 323.201 408.793 322.531C409.191 322.026 409.59 321.521 410 321C409.67 320.34 409.34 319.68 409 319C405.37 319 401.74 319 398 319ZM436 319C435.67 319.99 435.34 320.98 435 322C437.31 324.31 439.62 326.62 442 329C445.184 325.405 446.016 323.921 447 319C443.37 319 439.74 319 436 319ZM413.395 329.242C412.872 329.781 412.35 330.32 411.812 330.875C411.283 331.409 410.753 331.942 410.207 332.492C408.792 333.938 408.792 333.938 409 336C411.97 336.99 414.94 337.98 418 339C418 335.37 418 331.74 418 328C415.057 327.694 415.057 327.694 413.395 329.242ZM427 328C425.741 329.034 425.741 329.034 425.902 331.285C425.914 332.202 425.926 333.118 425.938 334.062C425.947 334.982 425.956 335.901 425.965 336.848C425.976 337.558 425.988 338.268 426 339C429.719 338.493 432.735 337.884 436 336C434.559 332.637 432.794 330.371 430 328C429.01 328 428.02 328 427 328Z" fill="black"/>
<path d="M106.875 281.687C111.803 285.501 115.023 289.565 118 295C118.578 295.969 119.155 296.939 119.75 297.937C124.27 309.01 123.805 319.818 120 331C115.599 340.95 108.059 348.449 98.1876 353C87.4419 356.987 76.6112 357.019 65.9962 352.809C54.5939 347.571 47.7467 340.17 43.0313 328.629C39.1599 317.427 40.5258 306.824 45.0001 296C50.5516 285.176 59.3164 278.65 70.6251 274.75C83.7168 271.926 95.8533 274.236 106.875 281.687ZM68.0001 294C69.4397 297.359 71.1242 299.716 74.0001 302C75.3201 301.67 76.6401 301.34 78.0001 301C78.0001 297.7 78.0001 294.4 78.0001 291C73.6691 291 71.7297 291.966 68.0001 294ZM86.0001 291C86.0001 294.3 86.0001 297.6 86.0001 301C89.886 301.446 89.886 301.446 91.7032 299.469C92.4689 298.494 92.4689 298.494 93.2501 297.5C93.7708 296.85 94.2916 296.201 94.8282 295.531C95.2149 295.026 95.6016 294.521 96.0001 294C92.2704 291.966 90.331 291 86.0001 291ZM61.0001 301C58.9657 304.73 58.0001 306.669 58.0001 311C61.3001 311 64.6001 311 68.0001 311C68.3301 309.68 68.6601 308.36 69.0001 307C67.8948 305.215 67.8948 305.215 66.1876 303.75C65.6449 303.229 65.1022 302.708 64.543 302.172C63.0575 300.798 63.0575 300.798 61.0001 301ZM97.8126 303.75C97.2621 304.26 96.7117 304.771 96.1446 305.297C95.7669 305.859 95.3892 306.421 95.0001 307C95.3301 308.32 95.6601 309.64 96.0001 311C99.3001 311 102.6 311 106 311C105.493 307.281 104.884 304.265 103 301C100.322 301 99.7176 301.922 97.8126 303.75ZM58.0001 319C58.4795 323.219 59.1663 325.797 62.0001 329C64.3101 326.69 66.6201 324.38 69.0001 322C68.6701 321.01 68.3401 320.02 68.0001 319C64.7001 319 61.4001 319 58.0001 319ZM96.0001 319C95.6701 320.32 95.3401 321.64 95.0001 323C97.3101 324.98 99.6201 326.96 102 329C102.66 327.907 103.32 326.814 104 325.687C104.371 325.073 104.743 324.458 105.125 323.824C106.216 321.886 106.216 321.886 106 319C102.7 319 99.4001 319 96.0001 319ZM74.0001 328C72.0201 330.31 70.0401 332.62 68.0001 335C71.2034 337.834 73.7809 338.521 78.0001 339C78.0001 335.7 78.0001 332.4 78.0001 329C76.6801 328.67 75.3601 328.34 74.0001 328ZM86.0001 328C86.0001 331.63 86.0001 335.26 86.0001 339C91.661 337.621 91.661 337.621 96.0001 334C95.0966 332.988 94.1767 331.991 93.2501 331C92.7396 330.443 92.2291 329.886 91.7032 329.312C89.8304 327.593 89.8304 327.593 86.0001 328Z" fill="black"/>
</g>
<defs>
<clipPath id="clip0_2235_55">
<rect width="512" height="512" fill="white"/>
</clipPath>
</defs>
</svg>
