<svg width="512" height="512" viewBox="0 0 512 512" fill="none" xmlns="http://www.w3.org/2000/svg">
<g clip-path="url(#clip0_2235_59)">
<path d="M220.734 144.833C223.109 144.832 225.483 144.83 227.858 144.827C236.26 144.818 244.661 144.814 253.063 144.815C259.862 144.815 266.661 144.808 273.46 144.794C462.179 144.414 462.179 144.414 479.746 159.332C499.23 182.395 501.081 229.98 500 259C500.598 259.083 501.196 259.165 501.812 259.25C504.675 260.232 505.481 261.416 507 264C507.845 267.271 507.864 270.632 508 274C508.027 274.669 508.054 275.338 508.083 276.028C508.162 278.269 508.211 280.508 508.25 282.75C508.272 283.471 508.293 284.192 508.315 284.934C508.344 289.712 507.554 292.957 505 297C504.34 297.33 503.68 297.66 503 298C502.593 300.322 502.256 302.657 502 305C503.918 305.186 503.918 305.186 505.875 305.375C509.75 305.75 509.75 305.75 512 308C512.371 310.715 512.371 310.715 512.438 313.937C512.477 314.998 512.517 316.059 512.559 317.152C512 320 512 320 509.785 321.766C507.213 322.905 504.66 323.902 502 324.812C497.068 326.708 495.1 328.806 492 333C488.285 335.684 484.122 335.254 479.734 335.195C478.544 335.191 478.544 335.191 477.33 335.187C474.803 335.176 472.277 335.15 469.75 335.125C468.034 335.115 466.318 335.106 464.602 335.098C460.401 335.076 456.201 335.041 452 335C451.397 333.869 451.397 333.869 450.782 332.715C446.513 324.715 442.229 316.724 437.934 308.738C437.084 307.156 436.236 305.572 435.389 303.988C434.06 301.508 432.72 299.034 431.375 296.562C430.999 295.856 430.623 295.149 430.235 294.42C427.021 288.565 423.596 284.056 417 282C414.319 281.8 411.746 281.696 409.066 281.699C407.933 281.693 407.933 281.693 406.777 281.686C405.184 281.68 403.591 281.68 401.999 281.684C399.574 281.687 397.15 281.664 394.725 281.639C393.172 281.636 391.619 281.636 390.066 281.637C389.347 281.627 388.629 281.618 387.888 281.609C383.155 281.652 379.955 282.391 376 285C367.398 295.323 362.173 308.065 356 320C289.01 320 222.02 320 153 320C148.71 312.41 144.42 304.82 140 297C134.576 287.029 134.576 287.029 126.055 282.32C120.765 281.496 115.337 281.895 110 282C108.66 282.019 108.66 282.019 107.292 282.038C104.36 282.087 101.431 282.165 98.5 282.25C97.5566 282.264 96.6131 282.278 95.6411 282.292C89.9862 282.495 86.3205 283.01 82 287C77.0716 293.176 74.2743 300.804 71.1875 308C70.6854 309.156 70.1833 310.313 69.666 311.504C68.4383 314.334 67.2165 317.166 66 320C59.986 320.074 53.9723 320.129 47.958 320.165C45.9134 320.18 43.8688 320.2 41.8242 320.226C38.8801 320.263 35.9365 320.28 32.9922 320.293C32.0826 320.308 31.173 320.324 30.2358 320.34C23.6485 320.342 19.4893 319.134 14.375 314.75C5.56011 304.543 6.84781 293.835 7 281C5.54594 280.814 5.54594 280.814 4.0625 280.625C3.05187 280.419 2.04125 280.212 1 280C-0.766887 276.466 -0.311971 272.456 -0.375 268.562C-0.412383 267.69 -0.449766 266.818 -0.488281 265.92C-0.499883 265.081 -0.511484 264.243 -0.523438 263.379C-0.543257 262.611 -0.563076 261.844 -0.583496 261.053C0 259 0 259 2.49731 257.608C3.73614 256.812 3.73614 256.812 5 256C5.71707 253.161 5.71707 253.161 5.56641 249.898C5.58284 248.079 5.58284 248.079 5.59961 246.223C5.58124 244.318 5.58124 244.318 5.5625 242.375C5.49478 232.301 5.50526 224.071 12.4375 216.25C14.0482 214.836 15.6681 213.432 17.3008 212.043C21.2063 208.105 23.3156 202.976 25.75 198.062C44.8805 160.501 44.8805 160.501 59.293 155.148C76.2879 150.293 94.6482 149.688 112.188 148.375C113.019 148.313 113.851 148.25 114.708 148.186C150.003 145.566 185.352 144.839 220.734 144.833ZM170 171C169.417 174.169 169.417 174.169 169.539 177.707C169.543 179.016 169.547 180.325 169.551 181.674C169.563 182.354 169.576 183.034 169.588 183.735C169.625 185.796 169.629 187.855 169.629 189.916C169.655 199.144 169.655 199.144 172 208C176.654 212.142 182.28 211.436 188.153 211.42C189.841 211.433 189.841 211.433 191.564 211.446C195.284 211.469 199.003 211.47 202.723 211.469C205.307 211.476 207.891 211.484 210.475 211.492C215.889 211.505 221.304 211.507 226.718 211.501C232.975 211.494 239.232 211.517 245.489 211.554C251.513 211.589 257.537 211.595 263.562 211.591C266.124 211.593 268.686 211.603 271.247 211.62C274.824 211.642 278.4 211.633 281.977 211.615C283.039 211.628 284.102 211.642 285.196 211.655C290.974 211.692 290.974 211.692 295.66 208.618C297.123 205.759 297.479 204.06 297.426 200.867C297.417 199.895 297.409 198.923 297.4 197.922C297.357 196.414 297.357 196.414 297.312 194.875C297.303 193.893 297.293 192.91 297.283 191.898C297.238 188.928 297.131 185.967 297 183C296.966 181.992 296.931 180.985 296.896 179.946C296.814 178.492 296.814 178.492 296.73 177.008C296.687 176.14 296.643 175.273 296.598 174.379C295.786 171.148 294.688 169.956 292 168C288.912 167.354 288.912 167.354 285.348 167.391C284.304 167.365 284.304 167.365 283.24 167.34C280.847 167.289 278.456 167.269 276.062 167.25C274.333 167.224 272.604 167.198 270.874 167.171C265.575 167.098 260.276 167.062 254.977 167.029C250.512 166.996 246.048 166.952 241.583 166.906C232.884 166.818 224.185 166.76 215.486 166.717C211.949 166.699 208.413 166.673 204.877 166.64C200.647 166.602 196.416 166.584 192.185 166.581C190.601 166.576 189.018 166.565 187.434 166.547C185.246 166.522 183.06 166.523 180.872 166.53C179.019 166.521 179.019 166.521 177.128 166.512C173.401 167.093 172.22 167.999 170 171ZM316.588 169.354C314.679 172.535 314.523 174.422 314.574 178.113C314.583 179.279 314.591 180.445 314.6 181.646C314.629 182.856 314.658 184.066 314.688 185.312C314.697 186.511 314.707 187.709 314.717 188.943C314.291 199.364 314.291 199.364 317.312 208.938C320.683 211.06 324.146 211.128 328.048 211.147C329.574 211.158 329.574 211.158 331.132 211.169C332.798 211.173 332.798 211.173 334.498 211.177C335.672 211.184 336.847 211.19 338.057 211.197C341.944 211.217 345.831 211.228 349.719 211.238C351.058 211.242 352.398 211.246 353.738 211.251C360.029 211.27 366.319 211.284 372.61 211.292C379.87 211.302 387.13 211.328 394.39 211.369C400.004 211.399 405.619 211.414 411.233 211.417C414.586 211.419 417.938 211.428 421.291 211.453C425.028 211.478 428.765 211.477 432.502 211.47C434.168 211.489 434.168 211.489 435.868 211.509C436.886 211.502 437.904 211.495 438.952 211.488C440.277 211.491 440.277 211.491 441.629 211.495C444.78 210.837 445.991 209.454 448 207C449.489 200.683 447.291 193.47 445.812 187.312C445.616 186.402 445.419 185.491 445.217 184.553C443.85 178.762 442.362 175.11 438 171C433.597 168.387 430.293 167.605 425.197 167.501C424.541 167.484 423.884 167.467 423.208 167.45C421.033 167.398 418.859 167.366 416.684 167.336C415.13 167.304 413.576 167.272 412.022 167.238C407.868 167.154 403.713 167.091 399.558 167.035C397.021 167 394.485 166.962 391.948 166.923C382.574 166.783 373.201 166.692 363.827 166.659C359.452 166.644 355.078 166.618 350.704 166.568C346.365 166.519 342.026 166.494 337.687 166.487C336.057 166.48 334.428 166.465 332.798 166.441C330.551 166.409 328.306 166.409 326.059 166.417C324.788 166.408 323.516 166.4 322.207 166.392C318.837 166.725 318.837 166.725 316.588 169.354ZM132.499 167.031C131.619 167.046 130.74 167.061 129.833 167.076C128.828 167.093 127.823 167.11 126.787 167.127C122.195 167.207 117.603 167.289 113.01 167.372C110.598 167.416 108.185 167.457 105.772 167.497C102.272 167.556 98.7729 167.619 95.2734 167.684C94.2085 167.7 93.1435 167.717 92.0462 167.734C91.0221 167.754 89.998 167.774 88.9429 167.795C88.0586 167.81 87.1743 167.826 86.2633 167.842C81.4988 168.073 76.7505 168.568 72 169C72 183.19 72 197.38 72 212C78.1483 212.023 84.2965 212.043 90.4448 212.055C92.5256 212.06 94.6063 212.067 96.687 212.075C103.792 212.105 110.895 212.086 118 212C119.041 211.988 120.082 211.976 121.154 211.963C124.195 211.915 127.234 211.836 130.273 211.746C131.195 211.732 132.116 211.718 133.066 211.704C138.151 211.531 138.151 211.531 142.558 209.173C144.627 206.054 144.892 202.952 145.188 199.312C145.259 198.573 145.331 197.833 145.405 197.072C145.625 194.716 145.815 192.359 146 190C146.103 188.816 146.103 188.816 146.208 187.608C146.405 185.302 146.582 182.996 146.75 180.687C146.807 179.977 146.864 179.266 146.923 178.534C147.151 174.823 147.234 172.076 145 169C140.774 166.716 137.176 166.973 132.499 167.031ZM58.3174 171.111C55.942 174.072 54.4426 176.748 52.9219 180.219C52.4011 181.398 51.8803 182.578 51.3438 183.793C51.0821 184.402 50.8204 185.011 50.5508 185.638C49.7498 187.5 48.9312 189.354 48.1094 191.207C44.8025 198.374 44.8025 198.374 43 206C44.6216 209.486 45.7645 210.843 49 213C51.7072 213.169 54.2972 213.233 57 213.188C57.7245 213.187 58.4489 213.186 59.1953 213.186C62.3834 213.159 64.9567 213.014 68 212C67.67 197.81 67.34 183.62 67 169C61.2168 168.382 61.2168 168.382 58.3174 171.111Z" fill="black"/>
<path d="M135 298.09C143.604 306.308 147.844 316.53 148.187 328.375C148.006 339.256 143.423 349.29 135.992 357.184C127.792 364.66 118.085 367.643 107.082 368.129C96.1456 367.608 86.9903 362.997 79.1952 355.465C70.3557 345.54 68.0661 335.001 68.8046 321.943C69.8913 311.13 76.5655 302.395 84.66 295.605C100.372 284.825 120.47 285.869 135 298.09ZM94.9999 308C96.4909 311.795 98.7569 313.61 102 316C102.66 315.67 103.32 315.34 104 315C104 311.7 104 308.4 104 305C100.306 305 98.2215 306.282 94.9999 308ZM112 305C112 308.3 112 311.6 112 315C114.709 314.845 116.466 314.518 118.445 312.598C119.677 311.102 120.843 309.554 122 308C118.27 305.966 116.331 305 112 305ZM127 314C125.988 314.903 124.991 315.823 124 316.75C123.443 317.26 122.886 317.771 122.312 318.297C120.593 320.17 120.593 320.17 121 324C124.63 324 128.26 324 132 324C130.621 318.339 130.621 318.339 127 314ZM87.9999 315C85.6408 319.264 85.6408 319.264 84.9999 324C88.2999 324 91.5999 324 94.9999 324C95.3299 323.01 95.6599 322.02 95.9999 321C95.0478 319.994 94.088 318.995 93.1249 318C92.3244 317.165 92.3244 317.165 91.5077 316.312C90.0816 314.781 90.0816 314.781 87.9999 315ZM84.9999 332C85.4979 335.735 85.8748 337.812 87.9999 341C91.7951 339.509 93.6103 337.243 95.9999 334C95.6699 333.34 95.3399 332.68 94.9999 332C91.6999 332 88.3999 332 84.9999 332ZM121 332C122.041 336.231 122.041 336.231 125.062 338.75C126.032 339.492 127.001 340.235 128 341C130.75 337.772 131.104 336.479 132 332C128.37 332 124.74 332 121 332ZM99.2968 342.531C98.5311 343.506 98.5311 343.506 97.7499 344.5C97.2291 345.15 96.7083 345.799 96.1718 346.469C95.785 346.974 95.3983 347.479 94.9999 348C98.5744 350.349 100.634 351.127 105 352C105 348.37 105 344.74 105 341C101.114 340.554 101.114 340.554 99.2968 342.531ZM112 341C112 344.3 112 347.6 112 351C116.219 350.521 118.797 349.834 122 347C120.857 345.83 119.711 344.664 118.562 343.5C117.924 342.85 117.286 342.201 116.629 341.531C114.459 339.492 114.643 339.678 112 341Z" fill="black"/>
<path d="M426.25 297.25C434.095 305.095 439.319 315.279 440.035 326.43C439.88 337.804 435.897 348.719 428 357C418.665 364.529 407.907 368.419 395.844 367.852C384.923 366.36 375.287 361.596 368.344 352.934C361.839 343.766 359.165 333.79 360.367 322.574C362.406 311.059 367.104 302.232 376.754 295.43C392.935 285.13 410.554 286.383 426.25 297.25ZM386 308C386.954 309.149 387.914 310.294 388.875 311.437C389.409 312.076 389.942 312.714 390.492 313.371C391.922 315.108 391.922 315.108 394 316C394.66 315.67 395.32 315.34 396 315C396 311.7 396 308.4 396 305C391.669 305 389.73 305.966 386 308ZM404 305C404 308.3 404 311.6 404 315C404.99 315.33 405.98 315.66 407 316C408.98 313.69 410.96 311.38 413 309C409.69 305.69 408.468 305.496 404 305ZM419 314C416.69 316.31 414.38 318.62 412 321C412.33 321.99 412.66 322.98 413 324C416.3 324 419.6 324 423 324C422.521 319.781 421.834 317.203 419 314ZM380 315C377.706 318.441 377 319.723 377 324C380.3 324 383.6 324 387 324C385.959 319.769 385.959 319.769 382.938 317.25C381.968 316.507 380.999 315.765 380 315ZM376 332C377.32 335.3 378.64 338.6 380 342C381.134 341.051 382.269 340.103 383.438 339.125C384.395 338.324 384.395 338.324 385.371 337.508C387.108 336.078 387.108 336.078 388 334C387.67 333.34 387.34 332.68 387 332C383.37 332 379.74 332 376 332ZM413 332C412.67 332.99 412.34 333.98 412 335C414.31 337.31 416.62 339.62 419 342C421.834 338.797 422.521 336.219 423 332C419.7 332 416.4 332 413 332ZM393 340C390.69 342.31 388.38 344.62 386 347C389.203 349.834 391.781 350.521 396 351C396 347.7 396 344.4 396 341C395.01 340.67 394.02 340.34 393 340ZM404 341C404 344.3 404 347.6 404 351C408.219 350.521 410.797 349.834 414 347C412.857 345.83 411.711 344.664 410.563 343.5C409.924 342.85 409.286 342.201 408.629 341.531C406.459 339.492 406.644 339.678 404 341Z" fill="black"/>
</g>
<defs>
<clipPath id="clip0_2235_59">
<rect width="512" height="512" fill="white"/>
</clipPath>
</defs>
</svg>
