<svg width="512" height="512" viewBox="0 0 512 512" fill="none" xmlns="http://www.w3.org/2000/svg">
<g clip-path="url(#clip0_2235_63)">
<path d="M273.031 172.892C281.715 182.191 281.388 194.623 282.312 206.625C282.481 208.583 282.651 210.542 282.822 212.5C283.129 216.1 283.434 219.701 283.712 223.303C283.796 224.377 283.796 224.377 283.882 225.473C284.046 228.984 284.017 232.485 284 236C285.704 235.956 285.704 235.956 287.442 235.91C330.877 234.811 374.309 234.845 417.755 234.871C425.799 234.876 433.842 234.873 441.885 234.868C449.732 234.863 457.578 234.863 465.425 234.865C470.073 234.867 474.721 234.867 479.37 234.864C483.692 234.861 488.014 234.863 492.336 234.869C493.92 234.87 495.505 234.87 497.089 234.867C499.242 234.865 501.395 234.868 503.548 234.873C504.753 234.873 505.959 234.874 507.2 234.874C510 235 510 235 512 236C512 237.98 512 239.96 512 242C508.535 242.495 508.535 242.495 505 243C505.011 243.679 505.022 244.359 505.034 245.059C505.145 252.164 505.22 259.27 505.275 266.376C505.3 269.024 505.334 271.672 505.377 274.32C505.438 278.138 505.466 281.955 505.488 285.773C505.514 286.947 505.54 288.12 505.566 289.329C505.569 297.708 504.049 304.592 498.244 310.911C490.843 317.888 483.15 318.633 473.42 318.535C467.829 318.346 463.397 318.031 458.992 314.281C454.759 309.434 451.046 304.245 447.377 298.965C437.822 285.335 428.263 273.934 411 270.562C398.109 268.93 387.563 271.606 377 279C376.34 279 375.68 279 375 279C374.728 279.598 374.456 280.196 374.176 280.812C373.027 282.949 371.879 284.286 370.188 286C363.781 293.44 361.769 301.879 360.859 311.418C360.774 312.246 360.689 313.075 360.601 313.928C360.394 315.951 360.196 317.976 360 320C359.264 319.989 358.529 319.979 357.771 319.968C339.86 319.71 321.949 319.485 304.037 319.298C295.375 319.207 286.713 319.104 278.052 318.975C270.501 318.862 262.95 318.77 255.399 318.704C251.402 318.669 247.405 318.623 243.408 318.551C239.643 318.484 235.879 318.445 232.114 318.428C230.734 318.417 229.355 318.395 227.977 318.362C219.282 317.987 219.282 317.987 211.874 321.896C211.397 322.422 210.92 322.947 210.429 323.488C205.723 328.465 197.643 330.753 191.006 331.203C187.298 331.298 183.596 331.33 179.887 331.336C178.508 331.342 177.13 331.349 175.751 331.356C172.869 331.368 169.987 331.372 167.105 331.371C163.437 331.37 159.769 331.398 156.101 331.432C153.255 331.455 150.41 331.458 147.564 331.457C145.562 331.461 143.56 331.482 141.559 331.504C132.906 331.461 125.018 330.724 118.441 324.629C116.794 321.625 116.304 319.338 115.938 315.938C114.113 302.021 110.754 289.688 100 280C89.419 272.247 78.2036 268.969 65.1445 270.422C57.5846 271.812 51.1934 274.51 45 279C44.01 279.33 43.02 279.66 42 280C40.9404 281.848 40.9404 281.848 40 284C39.0533 285.342 38.0941 286.674 37.125 288C32.3141 295.169 30.2092 302.886 29.0625 311.375C28.2448 316.815 27.1273 319.342 23 323C18.9072 325.612 15.8351 326.774 11 326C6.44574 323.814 2.65757 321.384 -3.27826e-06 317C-0.799723 312.961 -0.95043 308.784 1.01953 305.086C3.07968 302.559 5.29241 300.805 8 299C8.79366 296.627 8.79366 296.627 9.19507 293.791C9.38214 292.702 9.56919 291.614 9.76193 290.492C10.048 288.717 10.048 288.717 10.3398 286.906C10.5481 285.69 10.7563 284.473 10.9708 283.22C11.6386 279.315 12.29 275.408 12.9375 271.5C13.5822 267.621 14.2309 263.742 14.8935 259.866C15.3059 257.452 15.7083 255.037 16.0991 252.62C18.0576 241.151 21.0696 230.869 30.7734 223.688C42.2271 217.115 58.7459 218.355 71.5508 217.711C73.6206 217.602 75.6903 217.493 77.7601 217.383C82.074 217.156 86.3881 216.933 90.7024 216.713C96.218 216.432 101.733 216.143 107.248 215.852C112.536 215.573 117.825 215.298 123.113 215.023C124.113 214.971 125.113 214.919 126.143 214.865C128.985 214.717 131.827 214.572 134.669 214.427C135.499 214.384 136.329 214.34 137.184 214.295C142.13 214.048 147.048 213.961 152 214C152.165 213.409 152.33 212.817 152.5 212.208C154.422 205.544 156.8 199.161 159.438 192.75C160.011 191.319 160.011 191.319 160.596 189.859C164.365 180.643 168.226 173.836 177.562 169.25C182.471 167.465 186.972 166.857 192.176 166.595C194.014 166.5 194.014 166.5 195.89 166.404C197.207 166.34 198.525 166.276 199.883 166.211C201.262 166.143 202.641 166.075 204.02 166.006C206.91 165.864 209.799 165.725 212.689 165.588C216.364 165.413 220.039 165.228 223.713 165.04C226.563 164.895 229.413 164.758 232.264 164.623C234.268 164.526 236.272 164.422 238.277 164.318C251.325 163.722 263.059 163.323 273.031 172.892ZM227.754 180.085C224.335 180.186 220.918 180.309 217.5 180.438C216.354 180.477 215.208 180.516 214.027 180.557C199.48 180.183 199.48 180.183 187 186C183.68 191.131 181.995 196.762 180.188 202.563C179.956 203.283 179.725 204.003 179.486 204.745C178.091 209.465 177.701 213.12 179 218C182.644 220.429 184.712 220.162 189 220C188.011 216.804 186.972 213.949 185.375 211C183.875 207.727 183.746 205.556 184 202C189.625 200.875 189.625 200.875 193 202C194.167 203.674 194.167 203.674 195.262 205.816C195.658 206.58 196.054 207.344 196.463 208.131C197.069 209.335 197.069 209.335 197.688 210.563C198.103 211.369 198.519 212.175 198.947 213.006C199.974 215 200.991 216.998 202 219C212.501 219.094 223.004 219.122 233.5 218.75C234.672 218.729 234.672 218.729 235.868 218.707C239.437 218.55 241.852 218.083 244.98 216.32C247.492 213.434 247.685 211.919 247.812 208.125C247.856 206.983 247.9 205.841 247.945 204.664C247.963 203.455 247.981 202.246 248 201C248.039 199.75 248.077 198.499 248.117 197.211C248.469 189.327 248.469 189.327 246 182C242.962 180.063 240.658 179.767 237.094 179.848C236.123 179.866 235.152 179.884 234.152 179.903C232.02 179.969 229.887 180.029 227.754 180.085Z" fill="black"/>
<path d="M96.1445 287.23C103.307 294.061 106.302 302.303 107.027 311.996C106.935 322.09 103.145 330.183 96.6875 337.688C88.9685 344.329 81.242 347.869 71 348C60.6891 347.098 52.1637 343.567 45 336C39.4245 328.989 36.3382 320.337 36.7187 311.348C38.0094 300.575 41.9413 292.076 50.375 285.125C64.836 274.626 82.4796 276.457 96.1445 287.23ZM75 292C75 294.97 75 297.94 75 301C78.976 301.427 78.976 301.427 81.25 299.125C83.2119 297.201 83.2119 297.201 83 295C80.36 294.01 77.72 293.02 75 292ZM60 296C62.475 298.97 62.475 298.97 65 302C65.99 301.67 66.98 301.34 68 301C68 298.36 68 295.72 68 293C64.4242 293 62.947 294.088 60 296ZM88 301C85.4375 303.312 85.4375 303.312 83 306C83 306.99 83 307.98 83 309C85.97 309 88.94 309 92 309C91.5017 305.312 90.8993 303.395 88 301ZM54 302C51.9851 305.875 51.9851 305.875 51 310C53.97 310 56.94 310 60 310C60.33 309.01 60.66 308.02 61 307C59.3766 305.291 57.7068 303.626 56 302C55.34 302 54.68 302 54 302ZM84 316C83.5732 319.976 83.5732 319.976 85.875 322.25C87.7985 324.212 87.7985 324.212 90 324C91.7646 320.912 92 319.767 92 316C89.36 316 86.72 316 84 316ZM52 317C52.4983 320.688 53.1007 322.605 56 325C56.825 324.051 57.65 323.103 58.5 322.125C58.9641 321.591 59.4281 321.058 59.9062 320.508C61.1957 319.041 61.1957 319.041 61 317C58.03 317 55.06 317 52 317ZM66 324C64.2912 325.623 62.6255 327.293 61 329C61 329.66 61 330.32 61 331C64.0881 332.765 65.2331 333 69 333C69 330.36 69 327.72 69 325C68.01 324.67 67.02 324.34 66 324ZM76 324C74.6635 325.111 74.6635 325.111 74.875 327.938C74.7867 330.915 74.7867 330.915 76 333C79.6875 332.502 81.6049 331.899 84 329C83.0512 328.175 82.1025 327.35 81.125 326.5C80.5913 326.036 80.0576 325.572 79.5078 325.094C78.0406 323.804 78.0406 323.804 76 324Z" fill="black"/>
<path d="M427.164 286.672C433.669 292.706 437.507 300.908 438.223 309.754C438.505 319.363 436.985 327.55 430.797 335.117C423.324 342.947 415.444 347.231 404.637 347.992C394.367 348.023 386.398 344.792 378.738 337.992C371.462 330.487 368.834 322.807 368.5 312.438C368.855 301.815 372.038 294.958 379.363 287.27C393.649 274.973 412.457 275.309 427.164 286.672ZM392 295C393.293 297.884 394.659 299.872 397 302C397.99 301.67 398.98 301.34 400 301C400 298.36 400 295.72 400 293C396.233 293 395.088 293.235 392 295ZM407 293C407 295.64 407 298.28 407 301C410.976 301.427 410.976 301.427 413.25 299.125C415.212 297.201 415.212 297.201 415 295C411.912 293.235 410.767 293 407 293ZM386 301C383.641 305.264 383.641 305.264 383 310C385.97 310 388.94 310 392 310C391.694 306.326 391.242 305.219 388.438 302.688C387.633 302.131 386.829 301.574 386 301ZM420 301C418.95 302.14 417.934 303.313 416.938 304.5C416.116 305.475 416.116 305.475 415.277 306.469C414.856 306.974 414.434 307.479 414 308C415.008 309.233 415.008 309.233 417.066 309.098C417.89 309.086 418.714 309.074 419.562 309.062C420.802 309.049 420.802 309.049 422.066 309.035C422.704 309.024 423.343 309.012 424 309C423.01 306.36 422.02 303.72 421 301C420.67 301 420.34 301 420 301ZM415 316C414.67 316.99 414.34 317.98 414 319C416.31 320.98 418.62 322.96 421 325C421.99 322.03 422.98 319.06 424 316C421.03 316 418.06 316 415 316ZM383 317C384.27 321.415 384.27 321.415 387 325C389.562 322.688 389.562 322.688 392 320C392 319.01 392 318.02 392 317C389.03 317 386.06 317 383 317ZM397 324C395.35 325.98 393.7 327.96 392 330C395.061 332.624 395.732 333 400 333C400 330.36 400 327.72 400 325C399.01 324.67 398.02 324.34 397 324ZM408 324C406.794 324.983 406.794 324.983 406.902 326.848C406.914 327.579 406.926 328.309 406.938 329.062C406.958 330.362 406.979 331.661 407 333C409.934 332.733 409.934 332.733 413 332C413.66 331.01 414.32 330.02 415 329C413.377 327.291 411.707 325.626 410 324C409.34 324 408.68 324 408 324Z" fill="black"/>
</g>
<defs>
<clipPath id="clip0_2235_63">
<rect width="512" height="512" fill="white"/>
</clipPath>
</defs>
</svg>
