<svg width="512" height="512" viewBox="0 0 512 512" fill="none" xmlns="http://www.w3.org/2000/svg">
<g clip-path="url(#clip0_2235_67)">
<path d="M413.954 187.211C416.114 188.044 418.275 188.871 420.438 189.697C421.192 189.986 421.947 190.274 422.725 190.571C424.261 191.159 425.798 191.746 427.335 192.333C431.01 193.739 434.681 195.152 438.346 196.585C450.799 201.436 463.078 205.258 476.25 207.625C479.518 208.227 482.784 208.831 486.049 209.45C487.903 209.796 489.761 210.121 491.623 210.417C492.402 210.555 493.182 210.693 493.984 210.836C494.647 210.942 495.309 211.048 495.991 211.158C499.192 212.5 500.856 214.293 503 217C503.564 220.378 503.564 220.378 503.496 224.207C503.498 225.613 503.5 227.018 503.502 228.424C503.475 230.616 503.438 232.807 503.395 234.999C503.083 246.085 503.083 246.085 508.552 255.421C513.433 260.744 512.471 268.973 512.312 275.727C511.796 285.489 507.495 293.814 500.422 300.49C497.052 302.592 493.543 303.138 489.691 303.824C488.888 303.975 488.084 304.126 487.256 304.282C485.56 304.599 483.863 304.91 482.165 305.217C479.573 305.686 476.985 306.17 474.396 306.658C472.745 306.965 471.093 307.27 469.441 307.574C468.67 307.718 467.899 307.862 467.105 308.01C463.362 308.681 459.806 309.172 456 309C455.853 308.056 455.706 307.113 455.555 306.141C453.151 292.38 448.516 280.146 436.75 271.812C425.554 264.715 414.054 262.713 401 264C387.918 267.123 377.572 275.112 370.457 286.461C365.617 295.915 364.938 306.528 365 317C340.197 317.526 315.394 318.048 290.591 318.565C279.07 318.805 267.549 319.046 256.029 319.291C245.969 319.505 235.909 319.716 225.849 319.924C220.539 320.034 215.229 320.145 209.919 320.259C184.609 320.804 159.317 321.137 134 321C134.018 320.367 134.035 319.735 134.054 319.083C134.077 318.251 134.1 317.42 134.123 316.564C134.157 315.328 134.157 315.328 134.192 314.068C134.504 301.517 132.595 291.275 125 281C124.582 280.407 124.165 279.814 123.734 279.203C117.596 271.23 107.949 265.472 98 264C84.6324 262.706 73.1734 264.199 62.0625 272.375C51.594 281.274 45.4838 292.4 44.1484 306.145C43.943 310.097 43.9708 314.043 44 318C20.6837 315.13 20.6837 315.13 10 311C9.27168 310.725 8.54336 310.451 7.79297 310.168C4.12467 307.778 3.33838 302.98 2 299C1.5875 297.804 1.175 296.607 0.75 295.375C-1.61466 284.259 -0.309087 274.463 3.1875 263.812C3.47875 262.916 3.77 262.019 4.07007 261.095C6.58552 253.979 9.97508 249.664 16.8125 246.188C43.7042 233.472 74.8359 227.465 103.918 221.973C104.786 221.805 105.655 221.638 106.549 221.465C108.085 221.174 109.623 220.897 111.166 220.642C118.626 219.262 125.37 216.018 132.25 212.938C133.651 212.317 135.053 211.698 136.454 211.079C147.269 206.285 158.01 201.333 168.75 196.375C249.47 159.13 330.032 154.83 413.954 187.211ZM300 178C299.161 182.838 298.325 187.676 297.491 192.514C297.208 194.157 296.924 195.8 296.639 197.443C296.228 199.816 295.819 202.189 295.41 204.563C295.284 205.287 295.158 206.011 295.028 206.757C294.216 211.493 293.566 216.228 293 221C322.346 220.35 322.346 220.35 351.688 219.5C353.427 219.447 353.427 219.447 355.202 219.393C360.542 219.209 365.731 218.905 371 218C371.509 216.44 372.007 214.877 372.5 213.313C372.778 212.442 373.057 211.572 373.344 210.676C374.965 204.064 373.11 200.162 369.688 194.5C365.6 188.072 361.933 184.418 354.438 182.625C350.973 181.921 347.506 181.443 344 181C342.459 180.774 342.459 180.774 340.887 180.543C327.213 178.544 313.809 177.615 300 178ZM186 207C185.34 207.99 184.68 208.98 184 210C184.706 210.812 184.706 210.812 185.426 211.641C187.262 214.393 187.684 216.496 188.188 219.75C188.346 220.735 188.505 221.72 188.668 222.734C188.778 223.482 188.887 224.23 189 225C219.089 224.361 219.089 224.361 249.175 223.559C251.136 223.502 253.099 223.447 255.061 223.393C261.428 223.196 267.68 222.815 274 222C278.245 207.463 281.685 192.774 285 178C252.97 177.282 211.163 185.671 186 207ZM374 190C376.039 194.573 379.096 198.495 382.077 202.485C384.186 205.333 385.956 207.904 387.441 211.141C389.021 214.442 389.902 215.986 393 218C400.247 219.221 407.713 218.606 415 218C414.76 213.918 414.529 211.619 411.831 208.463C408.942 205.949 406.339 204.409 402.887 202.773C401.721 202.217 400.555 201.66 399.354 201.086C398.449 200.664 398.449 200.664 397.527 200.233C395.698 199.38 393.877 198.512 392.057 197.641C386.116 194.826 380.205 192.174 374 190Z" fill="black"/>
<path d="M436.965 279.023C440.35 282.311 442.75 285.869 445 290C445.414 290.737 445.828 291.475 446.254 292.234C450.57 301.197 450.514 312.421 447.5 321.812C442.91 332.448 436.366 339.801 426 345C415.752 348.955 405.063 348.779 394.883 344.773C383.848 339.628 377.515 332.837 373.027 321.555C369.635 311.487 370.421 301.955 374 292C375.689 288.705 377.664 285.867 380 283C380.771 282.043 380.771 282.043 381.559 281.066C395.984 264.98 421.152 265.916 436.965 279.023ZM414 285C414 288.3 414 291.6 414 295C415.32 295.33 416.64 295.66 418 296C419.98 293.69 421.96 291.38 424 289C420.666 286.809 417.958 285.565 414 285ZM400.937 287C399.837 287.557 399.837 287.557 398.715 288.125C397.866 288.558 397.866 288.558 397 289C397.926 290.175 398.867 291.34 399.812 292.5C400.335 293.15 400.857 293.799 401.394 294.469C402.992 296.345 402.992 296.345 406 296C406 292.37 406 288.74 406 285C404.156 285 402.55 286.181 400.937 287ZM391 295C388.105 298.136 387.476 300.809 387 305C390.3 305 393.6 305 397 305C397.33 304.01 397.66 303.02 398 302C396.836 300.091 396.836 300.091 395.125 298.312C394.571 297.69 394.016 297.067 393.445 296.426C392.22 294.883 392.22 294.883 391 295ZM429 295C427.988 295.903 426.991 296.823 426 297.75C425.443 298.26 424.886 298.771 424.312 299.297C422.593 301.17 422.593 301.17 423 305C426.3 305 429.6 305 433 305C432.52 300.781 431.834 298.203 429 295ZM387 312C387.432 316.752 388.328 318.92 392 322C393.035 321.1 394.053 320.179 395.062 319.25C395.915 318.484 395.915 318.484 396.785 317.703C397.386 316.86 397.386 316.86 398 316C397.67 314.68 397.34 313.36 397 312C393.7 312 390.4 312 387 312ZM423 312C423.155 314.709 423.482 316.466 425.402 318.445C426.898 319.677 428.446 320.843 430 322C432.034 318.27 433 316.331 433 312C429.7 312 426.4 312 423 312ZM401.394 322.531C400.872 323.181 400.35 323.831 399.812 324.5C399.283 325.15 398.753 325.799 398.207 326.469C397.809 326.974 397.41 327.479 397 328C398.311 328.669 399.624 329.335 400.937 330C401.668 330.371 402.399 330.742 403.152 331.125C404.81 332.071 404.81 332.071 406 332C406 328.37 406 324.74 406 321C402.992 320.655 402.992 320.655 401.394 322.531ZM415 321C413.74 322.034 413.74 322.034 413.902 324.285C413.914 325.202 413.925 326.118 413.937 327.062C413.946 327.982 413.955 328.901 413.965 329.848C413.976 330.558 413.988 331.268 414 332C416.64 331.01 419.28 330.02 422 329C422.418 325.038 422.418 325.038 420.187 322.75C418.076 320.688 418.076 320.688 415 321Z" fill="black"/>
<path d="M115.312 278.125C122.57 285.064 127.747 293.879 128.336 304.016C128.608 316.634 126.647 325.922 118.203 335.773C110.589 343.468 101.319 347.216 90.6015 347.996C78.6989 348.014 68.6375 343.39 60.0429 335.297C52.3931 326.696 49.6319 316.926 50.0625 305.625C51.278 294.003 56.0585 284.591 65 277C80.7992 266.737 100.146 265.968 115.312 278.125ZM93 285C93 288.3 93 291.6 93 295C94.32 295.33 95.64 295.66 97 296C98.98 293.69 100.96 291.38 103 289C99.6659 286.809 96.9582 285.565 93 285ZM80.9375 286.5C79.8372 286.918 79.8372 286.918 78.7148 287.344C78.1489 287.56 77.583 287.777 77 288C76.6833 291.205 76.6833 291.205 79.25 293.75C80.6112 294.864 80.6112 294.864 82 296C83.32 295.67 84.64 295.34 86 295C86 291.7 86 288.4 86 285C84.2111 285 82.5916 285.87 80.9375 286.5ZM70 295C69.34 296.279 68.68 297.558 68 298.875C67.6287 299.594 67.2575 300.314 66.875 301.055C65.8632 302.948 65.8632 302.948 66 305C69.3 305 72.6 305 76 305C76.33 303.68 76.66 302.36 77 301C74.69 299.02 72.38 297.04 70 295ZM108 295C106.965 295.9 105.947 296.821 104.937 297.75C104.369 298.26 103.801 298.771 103.215 299.297C102.814 299.859 102.413 300.421 102 301C102.33 302.32 102.66 303.64 103 305C106.3 305 109.6 305 113 305C111.621 299.339 111.621 299.339 108 295ZM66 312C66.99 314.97 67.98 317.94 69 321C72.2052 321.317 72.2052 321.317 74.75 318.75C75.8637 317.389 75.8637 317.389 77 316C76.67 314.68 76.34 313.36 76 312C72.7 312 69.4 312 66 312ZM103 312C102.67 313.32 102.34 314.64 102 316C104.31 317.98 106.62 319.96 109 322C111.191 318.666 112.434 315.958 113 312C109.7 312 106.4 312 103 312ZM82 321C80.02 323.31 78.04 325.62 76 328C79.3341 330.191 82.0417 331.435 86 332C86 328.7 86 325.4 86 322C84.68 321.67 83.36 321.34 82 321ZM94 321C92.7405 322.034 92.7405 322.034 92.9023 324.285C92.9139 325.202 92.9255 326.118 92.9375 327.063C92.9465 327.982 92.9555 328.901 92.9648 329.848C92.9764 330.558 92.988 331.268 93 332C98.6609 330.621 98.6609 330.621 103 327C102.072 325.991 101.132 324.993 100.187 324C99.6654 323.443 99.1433 322.886 98.6054 322.313C96.9585 320.684 96.9585 320.684 94 321Z" fill="black"/>
</g>
<defs>
<clipPath id="clip0_2235_67">
<rect width="512" height="512" fill="white"/>
</clipPath>
</defs>
</svg>
