<svg width="512" height="512" viewBox="0 0 512 512" fill="none" xmlns="http://www.w3.org/2000/svg">
<g clip-path="url(#clip0_2235_71)">
<path d="M440.135 160.926C445.177 160.866 450.22 160.824 455.262 160.794C457.157 160.781 459.052 160.762 460.947 160.738C463.553 160.706 466.157 160.693 468.763 160.685C469.528 160.672 470.293 160.658 471.081 160.644C475.568 160.655 478.463 161.176 482 164C485.112 169.481 485.666 174.764 486.167 180.974C486.255 181.951 486.343 182.927 486.434 183.933C486.721 187.141 486.992 190.35 487.262 193.559C487.458 195.791 487.656 198.023 487.854 200.255C488.373 206.115 488.877 211.976 489.378 217.837C489.893 223.824 490.421 229.809 490.947 235.795C491.978 247.529 492.994 259.264 494 271C494.681 270.985 495.363 270.97 496.065 270.954C496.961 270.942 497.858 270.93 498.781 270.918C500.113 270.895 500.113 270.895 501.471 270.872C504.908 271.046 507.167 272.088 510 274C514.004 280.006 512.221 287.84 510.875 294.625C509.193 301.235 506.716 307.168 501.16 311.402C494.313 315.47 486.656 316.56 478.835 315.518C475.66 314.622 474.615 312.883 472.938 310.125C472.01 308.245 471.087 306.362 470.207 304.459C467.58 299.108 464.44 294.022 461.438 288.875C460.499 287.232 460.499 287.232 459.541 285.555C457.714 282.358 455.864 279.176 454 276C453.39 274.95 452.781 273.899 452.153 272.817C451.259 271.334 451.259 271.334 450.348 269.82C449.823 268.939 449.299 268.057 448.758 267.149C446.633 264.552 445.173 264.024 442 263C439.318 262.695 439.318 262.695 436.479 262.725C435.397 262.716 434.316 262.706 433.202 262.696C431.464 262.698 431.464 262.698 429.691 262.699C428.492 262.695 427.293 262.691 426.057 262.686C423.522 262.681 420.988 262.68 418.454 262.684C414.58 262.688 410.708 262.664 406.834 262.639C404.37 262.636 401.906 262.636 399.441 262.637C398.285 262.628 397.129 262.618 395.937 262.609C388.002 262.582 388.002 262.582 381 266C378.965 268.461 378.965 268.461 377.371 271.426C376.727 272.535 376.083 273.644 375.42 274.787C374.759 275.962 374.098 277.137 373.438 278.313C369.579 285.018 369.579 285.018 368.507 286.727C366.155 290.571 364.587 294.164 363.307 298.491C360.912 305.332 358.055 310.779 352 315C339.193 319.758 323.348 318.036 309.949 317.823C304.31 317.752 298.672 317.793 293.033 317.816C283.564 317.838 274.098 317.77 264.63 317.648C253.711 317.509 242.799 317.513 231.879 317.593C221.341 317.667 210.805 317.638 200.267 317.564C195.798 317.535 191.332 317.541 186.863 317.576C150.179 317.806 150.179 317.806 142.239 311.031C139.004 307.402 136.808 303.596 134.944 299.123C133.564 296.018 131.65 293.713 129.484 291.105C128.239 289.467 126.994 287.827 125.75 286.188C125.084 285.314 124.418 284.441 123.731 283.542C120.774 279.665 117.829 275.781 114.941 271.852C114.49 271.244 114.039 270.637 113.573 270.011C112.412 268.447 111.262 266.874 110.113 265.301C107.173 262.1 104.51 261.141 100.199 260.739C99.1804 260.735 98.1615 260.73 97.1117 260.725C95.9502 260.716 94.7887 260.706 93.592 260.696C92.3461 260.697 91.1001 260.698 89.8165 260.699C87.8841 260.693 87.8841 260.693 85.9127 260.686C83.19 260.679 80.4676 260.679 77.745 260.684C74.267 260.69 70.7896 260.673 67.3117 260.65C63.98 260.632 60.6483 260.635 57.3165 260.637C55.4506 260.623 55.4506 260.623 53.5471 260.609C45.226 260.437 45.226 260.437 38.0001 264C36.2864 266.531 35.1284 269.166 34.0001 272C33.6976 272.757 33.3953 273.515 33.0837 274.295C32.1317 276.769 31.2247 279.255 30.3282 281.75C30.0009 282.649 29.6736 283.547 29.3364 284.473C28.3032 287.314 27.2765 290.157 26.2501 293C25.5461 294.939 24.8416 296.878 24.1368 298.816C22.4195 303.542 20.7082 308.271 19.0001 313C13.1088 313.116 9.32562 312.97 4.00005 310C-1.44855 304.408 -0.628863 298.915 -0.562447 291.5C-0.586294 290.277 -0.610111 289.053 -0.634682 287.793C-0.620088 278.891 -0.620118 278.891 2.28521 274.719C6.29223 272.182 9.07126 271.869 13.7501 271.938C15.8538 271.968 15.8538 271.968 18.0001 272C18.0001 269.03 18.0001 266.06 18.0001 263C16.6801 262.34 15.3601 261.68 14.0001 261C14.8414 254.249 17.2013 249.829 22.0001 245C25.0082 243.1 28.2244 241.635 31.4378 240.119C37.1007 237.305 39.9466 233.736 43.3985 228.426C46.0673 224.384 48.6455 222.519 53.3878 221.474C64.262 219.725 75.1874 219.166 86.1719 218.527C88.3066 218.399 90.4412 218.269 92.5758 218.14C98.1614 217.801 103.747 217.469 109.334 217.14C118.286 216.61 127.239 216.071 136.191 215.53C139.302 215.343 142.413 215.16 145.525 214.977C147.443 214.862 149.362 214.747 151.28 214.633C152.135 214.583 152.989 214.534 153.869 214.483C156.248 214.339 158.624 214.176 161 214C161.827 213.943 162.653 213.886 163.505 213.827C164.306 213.758 165.107 213.689 165.933 213.618C166.648 213.561 167.363 213.503 168.1 213.443C171.613 212.624 173.292 209.892 175.188 207.063C176.116 205.783 177.046 204.505 177.977 203.227C178.704 202.2 178.704 202.2 179.446 201.153C182.206 197.328 185.148 193.645 188.063 189.938C191.39 185.682 194.706 181.425 197.902 177.07C198.566 176.175 198.566 176.175 199.244 175.262C200.411 173.683 201.566 172.094 202.719 170.504C206.231 166.649 209.88 164.918 215.053 164.515C216.733 164.447 218.414 164.397 220.095 164.36C221.073 164.328 222.051 164.295 223.058 164.262C226.705 164.153 230.352 164.074 234 164C235.099 163.977 235.099 163.977 236.22 163.954C249.246 163.682 262.274 163.483 275.302 163.293C280.711 163.213 286.12 163.131 291.529 163.049C300.627 162.911 309.724 162.776 318.822 162.643C329.217 162.491 339.611 162.334 350.005 162.174C359.031 162.036 368.057 161.9 377.083 161.766C382.428 161.687 387.773 161.607 393.117 161.525C405.773 161.331 418.429 161.163 431.086 161.031C434.102 160.999 437.118 160.963 440.135 160.926ZM396 179C396 193.85 396 208.7 396 224C419.43 224 442.86 224 467 224C466.216 206.854 466.216 206.854 465 189.75C464.918 188.708 464.835 187.667 464.75 186.594C464.668 185.609 464.585 184.624 464.5 183.609C464.392 182.31 464.392 182.31 464.281 180.983C464.203 179.003 464.203 179.003 463 178C461.13 177.901 459.255 177.872 457.382 177.871C456.18 177.867 454.979 177.864 453.74 177.861C452.43 177.863 451.12 177.865 449.77 177.867C448.418 177.867 447.066 177.866 445.714 177.864C442.873 177.863 440.033 177.865 437.192 177.87C433.562 177.875 429.932 177.872 426.301 177.866C423.505 177.862 420.709 177.864 417.913 177.866C415.927 177.867 413.941 177.864 411.955 177.861C410.737 177.864 409.519 177.867 408.265 177.871C407.198 177.871 406.13 177.872 405.031 177.873C401.486 177.959 401.486 177.959 396 179ZM299 180C299 194.52 299 209.04 299 224C310.082 224.35 310.082 224.35 321.164 224.586C325.695 224.657 330.223 224.741 334.751 224.905C353.013 226.39 353.013 226.39 369.491 220.531C374.347 215.706 375.883 210.334 376.172 203.609C376.145 200.645 375.954 197.706 375.75 194.75C375.69 193.215 375.635 191.68 375.586 190.145C375.455 186.425 375.249 182.714 375 179C349.639 178.866 324.351 179.211 299 180ZM244.324 180.153C241.731 180.176 239.139 180.19 236.546 180.196C232.8 180.205 229.055 180.246 225.309 180.293C224.15 180.289 222.992 180.285 221.798 180.281C215.424 180.321 215.424 180.321 209.953 183.272C209.308 184.172 208.664 185.072 208 186C207.389 186.722 206.777 187.444 206.147 188.188C204.322 190.518 202.5 192.849 200.688 195.188C200.042 196.007 199.397 196.826 198.732 197.67C198.123 198.453 197.514 199.236 196.887 200.043C196.332 200.755 195.777 201.467 195.206 202.2C193.815 203.916 193.815 203.916 194 206C197.63 206 201.26 206 205 206C205 211.94 205 217.88 205 224C224.47 224 243.94 224 264 224C273.614 208.065 273.614 208.065 274.625 191.875C274.557 190.137 274.557 190.137 274.488 188.363C274.373 185.569 274.211 182.788 274 180C264.107 179.997 254.216 180.046 244.324 180.153Z" fill="black"/>
<path d="M448.73 278.074C460.936 288.655 469.02 301.619 470.219 317.988C470.651 333.021 466.616 346.842 456.687 358.312C445.091 370.434 432.542 376.99 415.562 377.375C400.918 377.002 386.579 372.579 376 362C364.222 348.856 359.073 334.792 359.644 317.195C360.029 311.119 361.735 305.626 364 300C364.277 299.277 364.554 298.554 364.84 297.809C370.698 284.446 382.193 275.57 395.293 270C413.146 263.405 433.604 266.583 448.73 278.074ZM405.437 299C404.611 299.371 403.785 299.742 402.934 300.125C402.295 300.414 401.657 300.702 401 301C402.58 304.321 404.079 306.68 407 309C408.32 308.67 409.64 308.34 411 308C411 304.37 411 300.74 411 297C409.043 297 407.187 298.211 405.437 299ZM419 298C419 301.3 419 304.6 419 308C420.32 308.33 421.64 308.66 423 309C424.785 307.895 424.785 307.895 426.25 306.187C426.771 305.645 427.292 305.102 427.828 304.543C429.202 303.057 429.202 303.057 429 301C425.27 298.966 423.331 298 419 298ZM394 308C391.58 311.529 390.871 313.647 390 318C393.63 318 397.26 318 401 318C401.33 317.01 401.66 316.02 402 315C400.857 313.83 399.711 312.664 398.562 311.5C397.924 310.85 397.286 310.201 396.629 309.531C395.251 307.886 395.251 307.886 394 308ZM430.812 310.75C430.262 311.26 429.712 311.771 429.144 312.297C428.767 312.859 428.389 313.421 428 314C428.33 315.32 428.66 316.64 429 318C432.3 318 435.6 318 439 318C438.493 314.281 437.884 311.265 436 308C433.322 308 432.718 308.922 430.812 310.75ZM390 326C390.454 327.444 390.907 328.887 391.375 330.375C391.63 331.187 391.885 331.999 392.148 332.836C392.898 335.165 392.898 335.165 395 337C396.202 335.933 397.386 334.846 398.562 333.75C399.224 333.147 399.885 332.543 400.566 331.922C401.276 330.971 401.276 330.971 402 330C401.67 328.68 401.34 327.36 401 326C397.37 326 393.74 326 390 326ZM429 326C428.67 327.32 428.34 328.64 428 330C429.105 331.785 429.105 331.785 430.812 333.25C431.355 333.771 431.898 334.292 432.457 334.828C433.942 336.202 433.942 336.202 436 336C438.034 332.27 439 330.331 439 326C435.7 326 432.4 326 429 326ZM407 335C404.985 336.409 404.985 336.409 403.25 338.437C402.636 339.096 402.023 339.755 401.391 340.434C400.702 341.209 400.702 341.209 400 342C403.364 344.961 406.692 345.923 411 347C411 343.37 411 339.74 411 336C409.68 335.67 408.36 335.34 407 335ZM420 335C418.714 336.06 418.714 336.06 418.902 338.504C418.914 339.513 418.925 340.523 418.937 341.562C418.946 342.574 418.955 343.586 418.965 344.629C418.976 345.411 418.988 346.194 419 347C424.661 345.621 424.661 345.621 429 342C427.881 340.827 426.755 339.662 425.625 338.5C424.998 337.85 424.372 337.201 423.727 336.531C422.135 334.779 422.135 334.779 420 335Z" fill="black"/>
<path d="M111.73 278.074C124.194 288.879 131.829 301.378 133.254 317.953C133.831 333.065 129.486 347.142 119.676 358.75C109.897 369.066 97.0923 376.32 82.6874 377.203C69.2823 377.373 58.4593 375.19 46.9999 368C46.0486 367.449 46.0486 367.449 45.078 366.887C33.9966 359.897 27.0314 347.021 23.6249 334.687C20.498 317.151 24.5684 301.588 34.4022 286.906C42.396 276.711 55.5671 269.376 68.2772 267.281C84.0781 265.649 98.8689 268.304 111.73 278.074ZM68.4374 299C67.6111 299.371 66.7848 299.742 65.9335 300.125C65.2954 300.414 64.6573 300.702 63.9999 301C65.5799 304.321 67.0788 306.68 69.9999 309C71.3199 308.67 72.6399 308.34 73.9999 308C73.9999 304.37 73.9999 300.74 73.9999 297C72.0425 297 70.1873 298.211 68.4374 299ZM81.9999 298C81.9999 301.3 81.9999 304.6 81.9999 308C83.3199 308.33 84.6399 308.66 85.9999 309C87.7852 307.895 87.7852 307.895 89.2499 306.187C89.7707 305.645 90.2915 305.102 90.828 304.543C92.2015 303.057 92.2015 303.057 91.9999 301C88.2702 298.966 86.3308 298 81.9999 298ZM56.9999 308C54.58 311.529 53.8706 313.647 52.9999 318C56.6299 318 60.2599 318 63.9999 318C64.3299 317.01 64.6599 316.02 64.9999 315C63.8571 313.83 62.7106 312.664 61.5624 311.5C60.9243 310.85 60.2862 310.201 59.6288 309.531C58.2511 307.886 58.2511 307.886 56.9999 308ZM93.8124 310.75C93.262 311.26 92.7115 311.771 92.1444 312.297C91.7667 312.859 91.389 313.421 90.9999 314C91.3299 315.32 91.6599 316.64 91.9999 318C95.2999 318 98.5999 318 102 318C101.493 314.281 100.884 311.265 98.9999 308C96.3217 308 95.7175 308.922 93.8124 310.75ZM52.9999 326C53.4536 327.444 53.9074 328.887 54.3749 330.375C54.6301 331.187 54.8854 331.999 55.1483 332.836C55.8984 335.165 55.8984 335.165 57.9999 337C59.202 335.933 60.3862 334.846 61.5624 333.75C62.2237 333.147 62.885 332.543 63.5663 331.922C64.2759 330.971 64.2759 330.971 64.9999 330C64.6699 328.68 64.3399 327.36 63.9999 326C60.3699 326 56.7399 326 52.9999 326ZM91.9999 326C91.6699 327.32 91.3399 328.64 90.9999 330C92.1794 331.784 92.1794 331.784 93.9374 333.25C94.7862 334.031 94.7862 334.031 95.6522 334.828C96.097 335.215 96.5417 335.602 96.9999 336C97.9899 335.67 98.9799 335.34 99.9999 335C101.023 332.903 101.023 332.903 101.687 330.437C102.121 328.973 102.554 327.509 103 326C99.3699 326 95.7399 326 91.9999 326ZM69.9999 335C68.2156 336.179 68.2156 336.179 66.7499 337.937C66.2291 338.503 65.7083 339.069 65.1718 339.652C64.5917 340.319 64.5917 340.319 63.9999 341C64.3299 341.99 64.6599 342.98 64.9999 344C67.0971 345.023 67.0971 345.023 69.5624 345.687C71.759 346.337 71.759 346.337 73.9999 347C73.9999 343.37 73.9999 339.74 73.9999 336C72.6799 335.67 71.3599 335.34 69.9999 335ZM81.9999 336C81.9999 339.63 81.9999 343.26 81.9999 347C87.6609 345.621 87.6609 345.621 91.9999 342C90.8571 340.83 89.7106 339.664 88.5624 338.5C87.9243 337.85 87.2862 337.201 86.6288 336.531C84.4592 334.492 84.6435 334.678 81.9999 336Z" fill="black"/>
<path d="M165.964 319.853C166.689 319.849 167.414 319.845 168.162 319.842C170.604 319.831 173.045 319.827 175.487 319.823C177.233 319.817 178.979 319.81 180.725 319.803C185.477 319.786 190.229 319.775 194.981 319.767C197.949 319.762 200.916 319.756 203.883 319.749C213.163 319.73 222.442 319.716 231.721 319.708C242.442 319.698 253.162 319.672 263.882 319.631C272.162 319.601 280.443 319.586 288.723 319.583C293.671 319.581 298.619 319.572 303.568 319.547C308.222 319.523 312.877 319.519 317.532 319.529C319.24 319.53 320.949 319.523 322.658 319.51C324.991 319.492 327.322 319.499 329.655 319.512C330.96 319.51 332.265 319.507 333.61 319.505C337.577 320.084 339.225 321.154 342 324C343.07 327.354 343.165 329.34 342.312 332.75C340.722 335.476 339.937 335.915 337 337C333.739 337.252 333.739 337.252 329.788 337.254C328.697 337.259 328.697 337.259 327.584 337.263C325.146 337.271 322.708 337.265 320.269 337.259C318.522 337.261 316.774 337.265 315.026 337.269C310.278 337.279 305.531 337.275 300.783 337.269C295.817 337.264 290.852 337.268 285.886 337.271C277.547 337.275 269.207 337.27 260.868 337.261C251.223 337.25 241.578 337.253 231.932 337.264C223.655 337.273 215.378 337.275 207.101 337.27C202.156 337.266 197.211 337.266 192.265 337.273C187.616 337.278 182.968 337.274 178.319 337.263C176.611 337.26 174.903 337.261 173.196 337.265C170.868 337.271 168.54 337.264 166.212 337.254C164.256 337.253 164.256 337.253 162.261 337.252C159.199 337.015 157.523 336.685 155 335C152.903 332.304 153.005 330.907 153.187 327.437C153.975 324.105 154.297 322.946 157 321C159.971 319.515 162.648 319.864 165.964 319.853Z" fill="black"/>
<path d="M351.782 134.893C358.114 134.813 364.446 134.755 370.779 134.714C373.039 134.696 375.299 134.672 377.559 134.641C380.637 134.6 383.714 134.583 386.793 134.574C387.681 134.557 388.569 134.539 389.483 134.521C395.375 134.542 395.375 134.542 398.517 136.843C400.456 139.664 400.93 141.578 401 145C399.785 147.813 398.838 149.467 396.24 151.121C393.494 152.198 391.303 152.278 388.354 152.316C386.628 152.346 386.628 152.346 384.867 152.376C383.608 152.387 382.349 152.399 381.052 152.411C379.71 152.43 378.368 152.45 377.025 152.471C373.381 152.525 369.736 152.567 366.09 152.607C362.268 152.65 358.445 152.705 354.623 152.759C347.372 152.859 340.122 152.948 332.871 153.035C324.662 153.133 316.453 153.243 308.244 153.354C296.114 153.518 283.984 153.677 271.854 153.824C269.93 153.847 268.006 153.871 266.082 153.895C263.786 153.923 261.49 153.947 259.194 153.968C257.071 153.989 254.948 154.019 252.826 154.058C251.358 154.076 251.358 154.076 249.861 154.095C248.58 154.117 248.58 154.117 247.273 154.14C243.989 153.938 241.689 152.84 239 151C237.435 147.871 237.303 144.389 238 141C239.47 138.915 239.47 138.915 242 137C245.078 136.533 247.812 136.328 250.902 136.285C252.325 136.243 252.325 136.243 253.777 136.201C257.184 136.11 260.592 136.054 264 136C265.348 135.975 266.695 135.949 268.043 135.922C279.216 135.705 290.389 135.564 301.562 135.438C302.857 135.423 302.857 135.423 304.177 135.408C314.669 135.287 325.161 135.177 335.653 135.075C341.03 135.022 346.406 134.96 351.782 134.893Z" fill="black"/>
</g>
<defs>
<clipPath id="clip0_2235_71">
<rect width="512" height="512" fill="white"/>
</clipPath>
</defs>
</svg>
