<svg width="512" height="512" viewBox="0 0 512 512" fill="none" xmlns="http://www.w3.org/2000/svg">
<path d="M468.184 79.8658C467.186 79.8613 466.188 79.8569 465.16 79.8523C464.061 79.8524 462.961 79.8526 461.829 79.8528C460.08 79.8473 460.08 79.8473 458.297 79.8417C455.056 79.8326 451.816 79.8279 448.575 79.8253C445.082 79.8214 441.589 79.8118 438.096 79.8031C429.658 79.7833 421.221 79.7732 412.783 79.7643C408.81 79.76 404.837 79.7546 400.864 79.7494C387.658 79.7323 374.453 79.7179 361.247 79.7106C357.82 79.7087 354.393 79.7068 350.966 79.7048C349.688 79.7041 349.688 79.7041 348.385 79.7034C334.584 79.6951 320.782 79.6697 306.981 79.6372C292.814 79.6042 278.647 79.5862 264.48 79.583C256.525 79.5808 248.57 79.572 240.614 79.5465C233.84 79.5248 227.066 79.5167 220.291 79.5265C216.835 79.531 213.38 79.5291 209.923 79.5097C206.175 79.4921 202.428 79.4991 198.679 79.5122C197.589 79.5013 196.499 79.4903 195.375 79.479C189.032 79.533 185.141 80.1855 180 84C174.329 91.4359 175.444 100.596 175.498 109.52C175.495 111.305 175.489 113.089 175.482 114.874C175.468 119.704 175.479 124.534 175.496 129.365C175.51 134.425 175.503 139.486 175.499 144.547C175.497 153.042 175.51 161.537 175.533 170.033C175.56 179.851 175.562 189.669 175.55 199.487C175.539 208.94 175.545 218.392 175.56 227.845C175.565 231.865 175.565 235.885 175.561 239.904C175.556 244.637 175.566 249.37 175.587 254.103C175.593 255.838 175.594 257.574 175.589 259.31C175.583 261.681 175.595 264.052 175.612 266.423C175.603 267.451 175.603 267.451 175.594 268.499C175.663 273.705 176.96 277.764 180.5 281.645C184.714 284.926 187.503 286.124 192.785 286.131C194.271 286.137 194.271 286.137 195.788 286.143C196.879 286.142 197.971 286.141 199.095 286.14C200.831 286.145 200.831 286.145 202.603 286.149C205.82 286.157 209.038 286.159 212.256 286.16C215.724 286.162 219.193 286.169 222.661 286.176C230.248 286.19 237.835 286.196 245.422 286.2C250.158 286.203 254.895 286.207 259.632 286.212C272.745 286.224 285.858 286.234 298.971 286.238C299.81 286.238 300.65 286.238 301.514 286.238C302.777 286.239 302.777 286.239 304.064 286.239C305.769 286.239 307.475 286.24 309.18 286.24C310.026 286.24 310.871 286.241 311.743 286.241C325.447 286.245 339.151 286.262 352.855 286.286C366.923 286.309 380.99 286.322 395.058 286.323C402.957 286.324 410.857 286.33 418.756 286.348C425.483 286.363 432.209 286.368 438.936 286.36C442.368 286.356 445.8 286.357 449.231 286.371C452.953 286.384 456.675 286.378 460.397 286.367C461.479 286.376 462.562 286.384 463.677 286.392C469.563 286.353 473.828 285.896 479 283C483.456 278.193 484.149 275.101 484.147 268.739C484.151 267.982 484.155 267.225 484.158 266.445C484.169 263.894 484.173 261.344 484.177 258.794C484.183 256.971 484.19 255.148 484.197 253.325C484.214 248.362 484.225 243.399 484.233 238.436C484.238 235.337 484.244 232.237 484.251 229.138C484.27 219.445 484.284 209.752 484.292 200.059C484.302 188.862 484.328 177.666 484.369 166.47C484.399 157.821 484.414 149.172 484.417 140.523C484.419 135.355 484.428 130.188 484.453 125.02C484.477 120.157 484.481 115.295 484.471 110.433C484.47 108.649 484.477 106.864 484.49 105.08C484.508 102.643 484.501 100.207 484.488 97.7693C484.499 97.0645 484.51 96.3596 484.521 95.6334C484.456 90.6507 483.082 87.8592 480 84C476.246 80.7008 473.114 79.876 468.184 79.8658Z" fill="black"/>
<path d="M148 153C142.826 152.9 137.653 152.828 132.479 152.78C130.724 152.76 128.97 152.733 127.216 152.698C116.35 152.487 107.21 152.889 97 157C95.9911 157.389 95.9911 157.389 94.9619 157.786C81.4412 163.361 69.6893 173.144 59.1133 183.063C56.9719 185.073 56.9719 185.073 54.4297 187.035C50.7936 189.976 47.9679 193.401 45 197C44.1995 197.963 43.399 198.926 42.5742 199.918C34.3573 210.047 26.9017 221.052 26.8596 234.521C26.8538 235.618 26.8481 236.716 26.8423 237.847C26.8411 239.041 26.84 240.235 26.8389 241.466C26.8339 242.732 26.8289 243.997 26.8238 245.301C26.8107 248.766 26.8043 252.231 26.7998 255.696C26.7969 257.864 26.7928 260.031 26.7883 262.199C26.7746 268.988 26.765 275.778 26.7611 282.567C26.7566 290.39 26.7391 298.213 26.7101 306.036C26.6885 312.093 26.6784 318.15 26.6771 324.207C26.676 327.82 26.6702 331.433 26.6523 335.046C26.6326 339.08 26.6371 343.112 26.6436 347.146C26.6343 348.334 26.6251 349.522 26.6156 350.747C26.6529 358.156 26.902 364.73 32.25 370.375C38.6404 374.151 44.7062 374.268 51.9375 374.125C52.8121 374.116 53.6868 374.107 54.5879 374.098C56.7254 374.074 58.8627 374.038 61 374C61.4241 372.756 61.8482 371.512 62.2852 370.23C69.9554 348.248 81.7613 332.083 102.997 321.714C120.331 313.569 138.942 313.18 157.062 319.188C176.36 326.56 189.642 338.868 198.594 357.277C201.02 362.87 202.501 368.002 204 374C238.98 374 273.96 374 310 374C311.65 369.05 313.3 364.1 315 359C322.977 342.28 336.014 327.298 353.723 320.59C359.75 318.509 365.865 316.732 372 315C372 314.67 372 314.34 372 314C371.048 313.999 370.096 313.997 369.116 313.996C345.92 313.959 322.724 313.899 299.528 313.816C288.311 313.776 277.093 313.744 265.876 313.729C256.095 313.716 246.313 313.689 236.532 313.645C231.357 313.623 226.182 313.607 221.006 313.608C216.126 313.609 211.247 313.591 206.367 313.559C204.585 313.55 202.802 313.549 201.019 313.554C185.603 313.596 172.941 311.762 161 301C151.188 290.452 148.708 278.725 148.681 264.709C148.671 263.498 148.661 262.288 148.651 261.04C148.625 257.744 148.608 254.447 148.595 251.15C148.58 247.696 148.553 244.242 148.527 240.788C148.481 234.257 148.444 227.727 148.411 221.196C148.372 213.757 148.323 206.318 148.273 198.879C148.169 183.586 148.08 168.293 148 153ZM123 190C123 214.09 123 238.18 123 263C99.57 263 76.14 263 52 263C52.7397 251.165 53.5382 242.809 57 232C57.2759 231.108 57.5517 230.216 57.8359 229.297C62.7051 215.449 73.0161 203.453 85.9375 196.625C98.2301 190.914 109.317 190 123 190Z" fill="black"/>
<path d="M358.293 348.543C347.886 355.361 339.9 365.198 337.281 377.613C335.485 392.855 338.227 405.464 347.625 417.625C355.551 426.317 366.724 431.037 378.258 432.379C391.064 432.857 403.719 428.679 413.219 419.965C423.177 409.43 426.655 397.563 426.309 383.297C425.653 370.942 419.526 361.087 410.75 352.687C396.254 340.404 374.6 339.248 358.293 348.543Z" fill="black"/>
<path d="M109.105 348.66C97.8598 356.152 91.4545 366.457 88.4179 379.5C86.5588 390.62 88.7357 402.54 95 412C103.417 422.856 112.434 429.24 126 432C138.337 433.286 150.563 430.662 160.504 423.094C170.429 414.692 176.185 404.596 177.812 391.688C178.689 378.636 174.634 367.183 166.461 357.102C152.071 341.119 127.505 338.107 109.105 348.66Z" fill="black"/>
<path d="M485 311C484.453 311.141 483.905 311.281 483.342 311.426C477.876 312.748 472.787 313.303 467.176 313.319C466.345 313.329 465.515 313.339 464.659 313.349C461.949 313.38 459.238 313.397 456.527 313.414C454.634 313.433 452.742 313.452 450.849 313.473C445.892 313.524 440.936 313.564 435.979 313.601C430.911 313.641 425.843 313.692 420.775 313.742C410.85 313.839 400.925 313.923 391 314C393.721 316.721 396.137 316.879 399.875 317.75C410.247 320.354 418.952 324.658 427.16 331.582C429 333 429 333 432 334C432.703 335.315 433.366 336.651 434 338C435.013 339.131 436.058 340.233 437.125 341.312C445.351 350.551 449.966 362.162 453 374C455.834 374.082 458.665 374.141 461.5 374.188C462.687 374.225 462.687 374.225 463.898 374.264C470.531 374.345 476.426 373.507 481.375 368.688C485.329 362.148 485.269 356.123 485.195 348.695C485.192 347.616 485.19 346.537 485.187 345.425C485.176 341.992 485.15 338.558 485.125 335.125C485.115 332.792 485.106 330.458 485.098 328.125C485.076 322.417 485.041 316.708 485 311Z" fill="black"/>
</svg>
