<svg width="512" height="512" viewBox="0 0 512 512" fill="none" xmlns="http://www.w3.org/2000/svg">
<g clip-path="url(#clip0_2235_92)">
<path d="M384 168C384.817 168.07 385.634 168.14 386.475 168.213C459.597 174.501 459.597 174.501 474.135 191.627C477.656 196.107 480.758 200.859 483.875 205.625C484.573 206.684 485.271 207.744 485.991 208.835C487.372 210.934 488.75 213.034 490.125 215.137C491.73 217.587 493.346 220.03 494.969 222.469C495.772 223.687 496.574 224.906 497.375 226.125C498.043 227.138 498.71 228.151 499.398 229.195C502.651 234.891 503.284 239.99 503.195 246.461C503.191 247.647 503.191 247.647 503.187 248.857C503.176 251.363 503.151 253.869 503.125 256.375C503.115 258.082 503.106 259.789 503.098 261.496C503.076 265.664 503.041 269.832 503 274C503.778 274.284 504.556 274.568 505.357 274.861C508.76 276.328 510.056 277.861 512 281C513.119 287.881 512.946 296.026 509 302C503.239 306.908 496.029 308.872 488.914 310.988C487.776 311.336 486.638 311.684 485.465 312.043C481.855 313.144 478.24 314.228 474.625 315.312C472.173 316.06 469.721 316.808 467.27 317.557C464.943 318.264 462.616 318.97 460.289 319.676C459.187 320.01 458.085 320.344 456.95 320.689C455.935 320.993 454.919 321.297 453.874 321.611C452.978 321.88 452.083 322.149 451.161 322.426C449 323 449 323 447 323C447.156 322.296 447.312 321.592 447.473 320.867C450.005 308.019 449.488 295.32 442.719 283.824C435.52 273.526 425.479 266.349 413 264C399.724 263.121 389.646 264.924 379 273C378.113 273.598 377.226 274.196 376.312 274.812C368.535 282.17 363.425 292.65 362.809 303.309C362.693 310.467 363.402 315.807 365 323C287.78 323 210.56 323 131 323C131.33 321.02 131.66 319.04 132 317C132.583 307.322 132.881 298.685 128 290C127.404 288.909 127.404 288.909 126.797 287.797C124.347 283.611 121.619 280.266 118 277C116.732 275.762 116.732 275.762 115.438 274.5C109.339 269.507 100.805 266.45 93 266C91.7831 265.917 90.5662 265.835 89.3125 265.75C77.7966 265.951 67.0831 270.591 58.625 278.285C50.1117 287.269 46.0687 298.728 46 311C46.2021 314.688 46.5621 318.334 47 322C39.6171 321.428 32.4859 320.243 25.25 318.687C24.2484 318.487 23.2468 318.287 22.2148 318.08C14.7011 316.473 8.94315 314.267 4.10156 307.91C-0.218504 300.419 -0.309776 291.736 -0.4375 283.312C-0.459817 282.434 -0.482134 281.555 -0.505127 280.65C-0.482995 274.281 0.992228 269.586 4 264C4.33653 263.373 4.67305 262.746 5.01978 262.1C11.524 250.758 26.6317 245.487 38.3657 241.999C42.0025 241.024 45.6502 240.124 49.3125 239.25C49.9923 239.083 50.6721 238.916 51.3726 238.744C60.8408 236.422 70.3283 234.549 79.9492 232.977C110.787 227.889 110.787 227.889 138.392 213.745C142.746 210.832 147.33 208.361 151.938 205.875C152.827 205.39 153.716 204.905 154.632 204.406C189.582 185.561 226.436 172.345 266 168C267.063 167.883 268.127 167.766 269.223 167.645C307.009 163.783 346.198 164.681 384 168ZM288 178C288 193.51 288 209.02 288 225C309.043 224.362 329.987 223.297 351 222C351 207.48 351 192.96 351 178C330.21 178 309.42 178 288 178ZM369 179C370.493 184.018 372.638 188.399 375.098 192.988C375.492 193.732 375.886 194.476 376.293 195.242C377.122 196.804 377.953 198.365 378.786 199.924C380.066 202.32 381.339 204.719 382.611 207.119C383.419 208.638 384.227 210.157 385.035 211.676C385.417 212.395 385.8 213.115 386.194 213.857C387.803 217.133 387.803 217.133 390 220C391.734 220.042 393.47 220.01 395.203 219.949C396.315 219.911 397.427 219.874 398.573 219.835C400.393 219.762 400.393 219.762 402.25 219.687C403.492 219.638 404.735 219.589 406.015 219.538C410.011 219.371 414.005 219.188 418 219C418.666 218.97 419.331 218.939 420.017 218.908C424.576 218.7 429.132 218.452 433.688 218.187C434.885 218.13 436.082 218.072 437.315 218.012C445.914 217.465 455.002 215.772 461 209C462.016 204.291 460.959 201.455 458.5 197.5C457.371 195.972 456.203 194.471 455 193C454.455 192.332 453.909 191.664 453.348 190.977C444.334 181.628 427.02 182.311 414.75 181.375C413.181 181.249 411.611 181.123 410.042 180.997C396.374 179.925 382.706 179.318 369 179ZM172 208C172 209.98 172 211.96 172 214C172.66 214 173.32 214 174 214C174.228 215.33 174.431 216.664 174.625 218C174.741 218.742 174.857 219.485 174.977 220.25C175.009 224.063 173.965 227.31 173 231C183.849 230.5 194.697 229.996 205.546 229.487C210.583 229.251 215.621 229.016 220.659 228.784C225.522 228.561 230.385 228.333 235.247 228.104C237.101 228.017 238.955 227.931 240.809 227.846C243.409 227.728 246.008 227.605 248.608 227.481C249.754 227.43 249.754 227.43 250.923 227.378C255.016 227.178 258.973 226.764 263 226C263.716 220.111 264.428 214.221 265.136 208.33C265.378 206.327 265.62 204.324 265.864 202.321C266.214 199.44 266.561 196.558 266.906 193.676C267.016 192.783 267.125 191.89 267.238 190.97C267.716 186.958 268.146 183.05 268 179C235.517 177.775 200.192 193.406 172 208ZM364 201C364 207.6 364 214.2 364 221C367.63 221 371.26 221 375 221C373.734 218.414 372.463 215.831 371.188 213.25C370.831 212.52 370.475 211.791 370.107 211.039C369.756 210.33 369.405 209.621 369.043 208.891C368.724 208.241 368.404 207.592 368.075 206.923C366.814 204.566 366.814 204.566 364 201Z" fill="black"/>
<path d="M111.125 278.566C119.67 285.1 124.372 292.65 126.5 303.25C127.741 313.37 125.704 322.995 119.527 331.18C112.507 339.546 104.519 345.294 93.4219 346.336C81.8139 346.459 73.0258 344.538 64.0039 336.984C56.3827 329.437 52.69 320.376 52.0039 309.793C51.9904 300.126 55.638 292.283 60.75 284.25C74.4166 270.583 94.8888 267.535 111.125 278.566ZM93 287C93 290.3 93 293.6 93 297C97.2881 296.524 99.2665 295.341 102 292C102 291.34 102 290.68 102 290C99.03 289.01 96.06 288.02 93 287ZM77 290C78.2821 292.86 79.4916 295.07 82 297C83.32 297 84.64 297 86 297C86 293.7 86 290.4 86 287C82.6965 287 79.979 288.676 77 290ZM107 296C105.02 297.98 103.04 299.96 101 302C101.33 302.99 101.66 303.98 102 305C104.97 305 107.94 305 111 305C110.469 301.179 109.503 298.938 107 296ZM71 297C68.3762 300.061 68 300.732 68 305C70.97 305 73.94 305 77 305C77.3437 302.045 77.3437 302.045 75.6875 300.613C75.1307 300.184 74.5738 299.755 74 299.313C73.01 298.549 72.02 297.786 71 297ZM68 313C68.4965 317.468 68.6899 318.69 72 322C73.98 320.02 75.96 318.04 78 316C77.67 315.01 77.34 314.02 77 313C74.03 313 71.06 313 68 313ZM102 313C101.558 316.831 101.558 316.831 103.313 318.484C103.869 318.902 104.426 319.32 105 319.75C105.99 320.493 106.98 321.235 108 322C110.359 317.736 110.359 317.736 111 313C108.03 313 105.06 313 102 313ZM82 321C79.1874 323.229 79.1874 323.229 77 326C77 326.66 77 327.32 77 328C81.2638 330.359 81.2638 330.359 86 331C86 328.03 86 325.06 86 322C84.68 321.67 83.36 321.34 82 321ZM94 321C92.7674 322.008 92.7674 322.008 92.9024 324.066C92.914 324.89 92.9256 325.714 92.9375 326.563C92.9582 328.027 92.9788 329.491 93 331C95.97 330.01 98.94 329.02 102 328C101.051 326.845 100.103 325.69 99.125 324.5C98.5914 323.85 98.0577 323.201 97.5079 322.531C97.0103 322.026 96.5127 321.521 96 321C95.34 321 94.68 321 94 321Z" fill="black"/>
<path d="M428.785 276.984C436.666 283.531 441.602 291.784 443 302C443.985 312.66 441.142 321.35 435 330C434.443 330.866 433.886 331.733 433.313 332.625C426.011 340.124 416.116 343.846 405.813 344.25C395.316 344.074 386.631 340.285 379.027 333.148C370.627 324.196 368.572 314.733 368.793 302.758C369.292 293.707 373.032 286.774 379 280C393.364 267.345 413.061 265.781 428.785 276.984ZM393 288C395.97 291.465 395.97 291.465 399 295C399.99 294.67 400.98 294.34 402 294C402 291.03 402 288.06 402 285C398.306 285 396.222 286.282 393 288ZM409 285C409 287.97 409 290.94 409 294C410.32 294.33 411.64 294.66 413 295C415.771 292.646 415.771 292.646 418 290C417.67 289.01 417.34 288.02 417 287C414.104 285.552 412.258 285 409 285ZM387 294C386.01 296.97 385.02 299.94 384 303C386.97 303 389.94 303 393 303C393.442 299.169 393.442 299.169 391.688 297.516C391.131 297.098 390.574 296.68 390 296.25C389.01 295.507 388.02 294.765 387 294ZM420.375 297.312C417.669 299.777 417.669 299.777 418 303C421.3 303 424.6 303 428 303C426.698 298.92 426.698 298.92 425 295C422.667 294.78 422.667 294.78 420.375 297.312ZM384 310C384.498 313.735 384.875 315.812 387 319C389.844 317.725 392.138 316.549 394 314C393.67 312.68 393.34 311.36 393 310C390.03 310 387.06 310 384 310ZM418 310C418.476 314.288 419.659 316.266 423 319C423.66 319 424.32 319 425 319C425.99 316.03 426.98 313.06 428 310C424.7 310 421.4 310 418 310ZM396.313 321.375C393.78 323.667 393.78 323.667 394 326C397.875 328.015 397.875 328.015 402 329C402 325.7 402 322.4 402 319C398.777 318.669 398.777 318.669 396.313 321.375ZM409 319C409 322.3 409 325.6 409 329C411.97 328.01 414.94 327.02 418 326C416.053 321.943 416.053 321.943 413 319C411.68 319 410.36 319 409 319Z" fill="black"/>
</g>
<defs>
<clipPath id="clip0_2235_92">
<rect width="512" height="512" fill="white"/>
</clipPath>
</defs>
</svg>
